<svg width="161" height="56" viewBox="0 0 161 56" fill="none" xmlns="http://www.w3.org/2000/svg">
<g clip-path="url(#clip0_7337_5397)">
<path d="M158.02 41.6788C143.801 66.1297 7.18083 53.514 1.39902 30.819C-7.71188 -4.94693 116.595 -1.69542 134.312 10.0098C134.968 10.4433 134.861 11.2441 134.312 11.0719C86.2984 -3.99312 -1.15462 5.52277 6.25449 30.819C14.7981 50.0892 154.772 63.8753 155.34 37.3435C155.714 19.8744 93.0449 3.42017 47.7108 8.66578C46.3554 8.44907 47.4227 7.50117 48.909 7.30017C97.5216 1.70187 168.75 18.3506 158.02 41.6788Z" fill="#D12727"/>
</g>
<defs>
<clipPath id="clip0_7337_5397">
<rect width="160" height="55" fill="white" transform="matrix(-1 0 0 -1 160.014 55.9773)"/>
</clipPath>
</defs>
</svg>
