<svg width="25" height="24" viewBox="0 0 25 24" fill="none" xmlns="http://www.w3.org/2000/svg">
<path d="M3.51709 6C3.51709 5.73478 3.62245 5.48043 3.80998 5.29289C3.99752 5.10536 4.25187 5 4.51709 5H20.5171C20.7823 5 21.0367 5.10536 21.2242 5.29289C21.4117 5.48043 21.5171 5.73478 21.5171 6C21.5171 6.26522 21.4117 6.51957 21.2242 6.70711C21.0367 6.89464 20.7823 7 20.5171 7H4.51709C4.25187 7 3.99752 6.89464 3.80998 6.70711C3.62245 6.51957 3.51709 6.26522 3.51709 6ZM3.51709 12C3.51709 11.7348 3.62245 11.4804 3.80998 11.2929C3.99752 11.1054 4.25187 11 4.51709 11H20.5171C20.7823 11 21.0367 11.1054 21.2242 11.2929C21.4117 11.4804 21.5171 11.7348 21.5171 12C21.5171 12.2652 21.4117 12.5196 21.2242 12.7071C21.0367 12.8946 20.7823 13 20.5171 13H4.51709C4.25187 13 3.99752 12.8946 3.80998 12.7071C3.62245 12.5196 3.51709 12.2652 3.51709 12ZM4.51709 17C4.25187 17 3.99752 17.1054 3.80998 17.2929C3.62245 17.4804 3.51709 17.7348 3.51709 18C3.51709 18.2652 3.62245 18.5196 3.80998 18.7071C3.99752 18.8946 4.25187 19 4.51709 19H20.5171C20.7823 19 21.0367 18.8946 21.2242 18.7071C21.4117 18.5196 21.5171 18.2652 21.5171 18C21.5171 17.7348 21.4117 17.4804 21.2242 17.2929C21.0367 17.1054 20.7823 17 20.5171 17H4.51709Z" fill="#1D2E2E"/>
</svg>
