<svg width="388" height="245" viewBox="0 0 388 245" fill="none" xmlns="http://www.w3.org/2000/svg">
<rect width="328" height="164" rx="8" fill="white"/>
<rect x="103" y="24" width="209" height="36" rx="8" fill="#F1F4F4"/>
<rect x="16" y="112" width="108" height="28" rx="8" fill="#F1F4F4"/>
<rect x="256" y="117" width="56" height="18" rx="8" fill="#F1F4F4"/>
<rect x="64" y="40" width="328" height="164" rx="8" fill="white"/>
<rect x="64" y="40" width="328" height="164" rx="8" stroke="#E1E7E7"/>
<rect x="167" y="64" width="209" height="36" rx="8" fill="#F1F4F4"/>
<rect x="80" y="152" width="108" height="28" rx="8" fill="#F1F4F4"/>
<rect x="320" y="157" width="56" height="18" rx="8" fill="#F1F4F4"/>
<rect x="128" y="80" width="328" height="164" rx="8" fill="white"/>
<rect x="128" y="80" width="328" height="164" rx="8" stroke="#E1E7E7"/>
<g filter="url(#filter0_d_7416_40)">
<rect x="231.5" y="104.5" width="208" height="35" rx="7.5" stroke="#E1E7E7" shape-rendering="crispEdges"/>
<path d="M247.616 118.141V116.818H255.496V118.141H252.32V127H250.788V118.141H247.616ZM259.228 127.154C258.512 127.154 257.887 126.99 257.353 126.662C256.82 126.334 256.405 125.875 256.11 125.285C255.815 124.695 255.668 124.005 255.668 123.217C255.668 122.424 255.815 121.732 256.11 121.138C256.405 120.545 256.82 120.085 257.353 119.756C257.887 119.428 258.512 119.264 259.228 119.264C259.944 119.264 260.568 119.428 261.102 119.756C261.636 120.085 262.05 120.545 262.345 121.138C262.64 121.732 262.787 122.424 262.787 123.217C262.787 124.005 262.64 124.695 262.345 125.285C262.05 125.875 261.636 126.334 261.102 126.662C260.568 126.99 259.944 127.154 259.228 127.154ZM259.233 125.906C259.697 125.906 260.081 125.784 260.386 125.538C260.691 125.293 260.916 124.967 261.062 124.559C261.211 124.151 261.286 123.702 261.286 123.212C261.286 122.724 261.211 122.277 261.062 121.869C260.916 121.458 260.691 121.129 260.386 120.88C260.081 120.631 259.697 120.507 259.233 120.507C258.765 120.507 258.377 120.631 258.069 120.88C257.764 121.129 257.537 121.458 257.388 121.869C257.242 122.277 257.169 122.724 257.169 123.212C257.169 123.702 257.242 124.151 257.388 124.559C257.537 124.967 257.764 125.293 258.069 125.538C258.377 125.784 258.765 125.906 259.233 125.906ZM268.011 119.364V120.557H263.84V119.364H268.011ZM264.959 117.534H266.445V124.758C266.445 125.046 266.488 125.263 266.574 125.409C266.661 125.552 266.772 125.649 266.907 125.702C267.047 125.752 267.198 125.777 267.36 125.777C267.479 125.777 267.584 125.769 267.673 125.752C267.763 125.736 267.832 125.722 267.882 125.712L268.15 126.94C268.064 126.973 267.942 127.007 267.782 127.04C267.623 127.076 267.425 127.096 267.186 127.099C266.795 127.106 266.43 127.036 266.092 126.891C265.754 126.745 265.481 126.519 265.272 126.214C265.063 125.91 264.959 125.527 264.959 125.066V117.534ZM271.878 127.169C271.394 127.169 270.956 127.08 270.565 126.901C270.174 126.718 269.864 126.455 269.636 126.11C269.41 125.765 269.298 125.343 269.298 124.842C269.298 124.411 269.38 124.057 269.546 123.778C269.712 123.5 269.936 123.28 270.217 123.117C270.499 122.955 270.814 122.832 271.162 122.749C271.51 122.666 271.865 122.603 272.226 122.56C272.683 122.507 273.054 122.464 273.339 122.431C273.625 122.395 273.832 122.337 273.961 122.257C274.09 122.178 274.155 122.048 274.155 121.869V121.835C274.155 121.4 274.032 121.064 273.787 120.825C273.545 120.587 273.184 120.467 272.703 120.467C272.203 120.467 271.808 120.578 271.52 120.8C271.235 121.019 271.038 121.263 270.928 121.531L269.531 121.213C269.697 120.749 269.939 120.375 270.257 120.089C270.579 119.801 270.948 119.592 271.366 119.463C271.783 119.33 272.223 119.264 272.683 119.264C272.988 119.264 273.311 119.301 273.653 119.374C273.997 119.443 274.319 119.572 274.617 119.761C274.919 119.95 275.166 120.22 275.358 120.572C275.55 120.92 275.646 121.372 275.646 121.929V127H274.195V125.956H274.135C274.039 126.148 273.895 126.337 273.702 126.523C273.51 126.708 273.263 126.862 272.962 126.985C272.66 127.108 272.299 127.169 271.878 127.169ZM272.201 125.976C272.612 125.976 272.963 125.895 273.255 125.732C273.55 125.57 273.774 125.358 273.926 125.096C274.082 124.831 274.16 124.547 274.16 124.246V123.261C274.107 123.314 274.004 123.364 273.852 123.411C273.702 123.454 273.532 123.492 273.339 123.525C273.147 123.555 272.96 123.583 272.778 123.609C272.595 123.633 272.443 123.652 272.32 123.669C272.032 123.705 271.768 123.767 271.53 123.853C271.295 123.939 271.106 124.063 270.963 124.226C270.824 124.385 270.754 124.597 270.754 124.862C270.754 125.23 270.89 125.509 271.162 125.697C271.434 125.883 271.78 125.976 272.201 125.976ZM279.113 116.818V127H277.626V116.818H279.113ZM287.04 127.169C286.556 127.169 286.119 127.08 285.727 126.901C285.336 126.718 285.026 126.455 284.798 126.11C284.572 125.765 284.46 125.343 284.46 124.842C284.46 124.411 284.543 124.057 284.708 123.778C284.874 123.5 285.098 123.28 285.379 123.117C285.661 122.955 285.976 122.832 286.324 122.749C286.672 122.666 287.027 122.603 287.388 122.56C287.845 122.507 288.217 122.464 288.502 122.431C288.787 122.395 288.994 122.337 289.123 122.257C289.252 122.178 289.317 122.048 289.317 121.869V121.835C289.317 121.4 289.194 121.064 288.949 120.825C288.707 120.587 288.346 120.467 287.865 120.467C287.365 120.467 286.97 120.578 286.682 120.8C286.397 121.019 286.2 121.263 286.09 121.531L284.693 121.213C284.859 120.749 285.101 120.375 285.419 120.089C285.741 119.801 286.11 119.592 286.528 119.463C286.945 119.33 287.385 119.264 287.845 119.264C288.15 119.264 288.473 119.301 288.815 119.374C289.16 119.443 289.481 119.572 289.779 119.761C290.081 119.95 290.328 120.22 290.52 120.572C290.712 120.92 290.808 121.372 290.808 121.929V127H289.357V125.956H289.297C289.201 126.148 289.057 126.337 288.865 126.523C288.672 126.708 288.425 126.862 288.124 126.985C287.822 127.108 287.461 127.169 287.04 127.169ZM287.363 125.976C287.774 125.976 288.125 125.895 288.417 125.732C288.712 125.57 288.936 125.358 289.088 125.096C289.244 124.831 289.322 124.547 289.322 124.246V123.261C289.269 123.314 289.166 123.364 289.014 123.411C288.865 123.454 288.694 123.492 288.502 123.525C288.309 123.555 288.122 123.583 287.94 123.609C287.758 123.633 287.605 123.652 287.482 123.669C287.194 123.705 286.931 123.767 286.692 123.853C286.457 123.939 286.268 124.063 286.125 124.226C285.986 124.385 285.916 124.597 285.916 124.862C285.916 125.23 286.052 125.509 286.324 125.697C286.596 125.883 286.942 125.976 287.363 125.976ZM292.788 127V119.364H294.215V120.607H294.31C294.469 120.186 294.729 119.857 295.09 119.622C295.451 119.384 295.884 119.264 296.388 119.264C296.898 119.264 297.326 119.384 297.67 119.622C298.018 119.861 298.275 120.189 298.441 120.607H298.521C298.703 120.199 298.993 119.874 299.391 119.632C299.788 119.387 300.262 119.264 300.812 119.264C301.505 119.264 302.07 119.481 302.508 119.915C302.949 120.35 303.169 121.004 303.169 121.879V127H301.683V122.018C301.683 121.501 301.542 121.127 301.26 120.895C300.978 120.663 300.642 120.547 300.251 120.547C299.767 120.547 299.391 120.696 299.122 120.994C298.854 121.289 298.719 121.669 298.719 122.133V127H297.238V121.924C297.238 121.51 297.109 121.177 296.85 120.925C296.592 120.673 296.255 120.547 295.841 120.547C295.559 120.547 295.299 120.621 295.06 120.771C294.825 120.916 294.634 121.12 294.489 121.382C294.346 121.644 294.275 121.947 294.275 122.292V127H292.788ZM308.378 127.154C307.662 127.154 307.037 126.99 306.504 126.662C305.97 126.334 305.556 125.875 305.261 125.285C304.966 124.695 304.818 124.005 304.818 123.217C304.818 122.424 304.966 121.732 305.261 121.138C305.556 120.545 305.97 120.085 306.504 119.756C307.037 119.428 307.662 119.264 308.378 119.264C309.094 119.264 309.719 119.428 310.252 119.756C310.786 120.085 311.2 120.545 311.495 121.138C311.79 121.732 311.938 122.424 311.938 123.217C311.938 124.005 311.79 124.695 311.495 125.285C311.2 125.875 310.786 126.334 310.252 126.662C309.719 126.99 309.094 127.154 308.378 127.154ZM308.383 125.906C308.847 125.906 309.231 125.784 309.536 125.538C309.841 125.293 310.067 124.967 310.213 124.559C310.362 124.151 310.436 123.702 310.436 123.212C310.436 122.724 310.362 122.277 310.213 121.869C310.067 121.458 309.841 121.129 309.536 120.88C309.231 120.631 308.847 120.507 308.383 120.507C307.916 120.507 307.528 120.631 307.22 120.88C306.915 121.129 306.688 121.458 306.539 121.869C306.393 122.277 306.32 122.724 306.32 123.212C306.32 123.702 306.393 124.151 306.539 124.559C306.688 124.967 306.915 125.293 307.22 125.538C307.528 125.784 307.916 125.906 308.383 125.906ZM318.434 123.833V119.364H319.926V127H318.464V125.678H318.385C318.209 126.085 317.927 126.425 317.539 126.697C317.155 126.965 316.676 127.099 316.103 127.099C315.612 127.099 315.178 126.992 314.8 126.776C314.426 126.558 314.131 126.234 313.915 125.807C313.703 125.379 313.597 124.851 313.597 124.221V119.364H315.083V124.042C315.083 124.562 315.228 124.977 315.516 125.285C315.804 125.593 316.179 125.747 316.64 125.747C316.918 125.747 317.195 125.678 317.47 125.538C317.748 125.399 317.979 125.189 318.161 124.907C318.346 124.625 318.438 124.267 318.434 123.833ZM323.41 122.466V127H321.923V119.364H323.35V120.607H323.444C323.62 120.202 323.895 119.877 324.27 119.632C324.648 119.387 325.123 119.264 325.697 119.264C326.217 119.264 326.673 119.374 327.064 119.592C327.455 119.808 327.758 120.129 327.974 120.557C328.189 120.984 328.297 121.513 328.297 122.143V127H326.81V122.322C326.81 121.768 326.666 121.336 326.378 121.024C326.089 120.709 325.693 120.552 325.189 120.552C324.845 120.552 324.538 120.626 324.27 120.776C324.005 120.925 323.794 121.143 323.638 121.432C323.486 121.717 323.41 122.062 323.41 122.466ZM333.855 119.364V120.557H329.684V119.364H333.855ZM330.802 117.534H332.289V124.758C332.289 125.046 332.332 125.263 332.418 125.409C332.504 125.552 332.615 125.649 332.751 125.702C332.89 125.752 333.041 125.777 333.204 125.777C333.323 125.777 333.427 125.769 333.517 125.752C333.606 125.736 333.676 125.722 333.726 125.712L333.994 126.94C333.908 126.973 333.785 127.007 333.626 127.04C333.467 127.076 333.268 127.096 333.03 127.099C332.639 127.106 332.274 127.036 331.936 126.891C331.598 126.745 331.324 126.519 331.116 126.214C330.907 125.91 330.802 125.527 330.802 125.066V117.534ZM339.204 129.864V119.364H340.656V120.602H340.78C340.867 120.442 340.991 120.259 341.153 120.05C341.316 119.841 341.541 119.659 341.829 119.503C342.118 119.344 342.499 119.264 342.973 119.264C343.589 119.264 344.14 119.42 344.623 119.732C345.107 120.043 345.487 120.492 345.762 121.079C346.04 121.665 346.18 122.371 346.18 123.197C346.18 124.022 346.042 124.73 345.767 125.32C345.492 125.906 345.114 126.359 344.633 126.677C344.153 126.992 343.604 127.149 342.988 127.149C342.524 127.149 342.144 127.071 341.849 126.915C341.558 126.76 341.329 126.577 341.163 126.369C340.997 126.16 340.87 125.974 340.78 125.812H340.691V129.864H339.204ZM340.661 123.182C340.661 123.719 340.739 124.189 340.895 124.594C341.05 124.998 341.276 125.315 341.571 125.543C341.866 125.769 342.227 125.881 342.655 125.881C343.099 125.881 343.47 125.764 343.768 125.528C344.067 125.29 344.292 124.967 344.444 124.559C344.6 124.151 344.678 123.692 344.678 123.182C344.678 122.678 344.602 122.226 344.449 121.825C344.3 121.424 344.075 121.107 343.773 120.875C343.475 120.643 343.102 120.527 342.655 120.527C342.224 120.527 341.859 120.638 341.561 120.86C341.266 121.082 341.042 121.392 340.89 121.79C340.737 122.187 340.661 122.652 340.661 123.182ZM350.067 127.169C349.583 127.169 349.146 127.08 348.755 126.901C348.364 126.718 348.054 126.455 347.825 126.11C347.6 125.765 347.487 125.343 347.487 124.842C347.487 124.411 347.57 124.057 347.736 123.778C347.901 123.5 348.125 123.28 348.407 123.117C348.689 122.955 349.003 122.832 349.351 122.749C349.699 122.666 350.054 122.603 350.415 122.56C350.873 122.507 351.244 122.464 351.529 122.431C351.814 122.395 352.021 122.337 352.15 122.257C352.28 122.178 352.344 122.048 352.344 121.869V121.835C352.344 121.4 352.222 121.064 351.976 120.825C351.734 120.587 351.373 120.467 350.893 120.467C350.392 120.467 349.998 120.578 349.709 120.8C349.424 121.019 349.227 121.263 349.118 121.531L347.721 121.213C347.886 120.749 348.128 120.375 348.447 120.089C348.768 119.801 349.138 119.592 349.555 119.463C349.973 119.33 350.412 119.264 350.873 119.264C351.178 119.264 351.501 119.301 351.842 119.374C352.187 119.443 352.508 119.572 352.807 119.761C353.108 119.95 353.355 120.22 353.547 120.572C353.74 120.92 353.836 121.372 353.836 121.929V127H352.384V125.956H352.324C352.228 126.148 352.084 126.337 351.892 126.523C351.7 126.708 351.453 126.862 351.151 126.985C350.849 127.108 350.488 127.169 350.067 127.169ZM350.39 125.976C350.801 125.976 351.153 125.895 351.444 125.732C351.739 125.57 351.963 125.358 352.116 125.096C352.271 124.831 352.349 124.547 352.349 124.246V123.261C352.296 123.314 352.193 123.364 352.041 123.411C351.892 123.454 351.721 123.492 351.529 123.525C351.337 123.555 351.149 123.583 350.967 123.609C350.785 123.633 350.632 123.652 350.51 123.669C350.221 123.705 349.958 123.767 349.719 123.853C349.484 123.939 349.295 124.063 349.153 124.226C349.013 124.385 348.944 124.597 348.944 124.862C348.944 125.23 349.08 125.509 349.351 125.697C349.623 125.883 349.97 125.976 350.39 125.976ZM355.816 127V119.364H357.302V127H355.816ZM356.566 118.185C356.308 118.185 356.086 118.099 355.9 117.927C355.718 117.751 355.627 117.542 355.627 117.3C355.627 117.055 355.718 116.846 355.9 116.674C356.086 116.498 356.308 116.411 356.566 116.411C356.825 116.411 357.045 116.498 357.228 116.674C357.413 116.846 357.506 117.055 357.506 117.3C357.506 117.542 357.413 117.751 357.228 117.927C357.045 118.099 356.825 118.185 356.566 118.185ZM362.161 127.149C361.544 127.149 360.994 126.992 360.51 126.677C360.03 126.359 359.652 125.906 359.377 125.32C359.105 124.73 358.969 124.022 358.969 123.197C358.969 122.371 359.106 121.665 359.382 121.079C359.66 120.492 360.041 120.043 360.525 119.732C361.009 119.42 361.557 119.264 362.171 119.264C362.645 119.264 363.026 119.344 363.314 119.503C363.606 119.659 363.831 119.841 363.99 120.05C364.153 120.259 364.279 120.442 364.368 120.602H364.458V116.818H365.944V127H364.492V125.812H364.368C364.279 125.974 364.149 126.16 363.98 126.369C363.815 126.577 363.586 126.76 363.294 126.915C363.003 127.071 362.625 127.149 362.161 127.149ZM362.489 125.881C362.916 125.881 363.278 125.769 363.573 125.543C363.871 125.315 364.096 124.998 364.249 124.594C364.405 124.189 364.482 123.719 364.482 123.182C364.482 122.652 364.406 122.187 364.254 121.79C364.101 121.392 363.878 121.082 363.583 120.86C363.288 120.638 362.923 120.527 362.489 120.527C362.041 120.527 361.669 120.643 361.37 120.875C361.072 121.107 360.847 121.424 360.694 121.825C360.545 122.226 360.47 122.678 360.47 123.182C360.47 123.692 360.547 124.151 360.699 124.559C360.852 124.967 361.077 125.29 361.375 125.528C361.677 125.764 362.048 125.881 362.489 125.881Z" fill="#1D2E2E" fill-opacity="0.8"/>
</g>
<path d="M157.327 204.69V205.969H144.288V204.69H157.327ZM157.327 207.452V208.73H144.288V207.452H157.327ZM156.286 199.909V213H153.895L148.206 204.761H148.104V213H145.342V199.909H147.765L153.422 208.142H153.531V199.909H156.286ZM163.465 213.179C162.562 213.179 161.757 213.013 161.049 212.68C160.346 212.348 159.788 211.89 159.374 211.306C158.961 210.722 158.746 210.053 158.729 209.299H161.414C161.443 209.806 161.656 210.217 162.053 210.533C162.449 210.848 162.92 211.006 163.465 211.006C163.9 211.006 164.284 210.91 164.616 210.718C164.953 210.522 165.215 210.251 165.402 209.906C165.594 209.557 165.69 209.156 165.69 208.705C165.69 208.244 165.592 207.839 165.396 207.49C165.204 207.141 164.938 206.868 164.597 206.672C164.256 206.476 163.866 206.376 163.427 206.371C163.044 206.371 162.671 206.45 162.308 206.608C161.95 206.766 161.671 206.981 161.471 207.254L159.01 206.812L159.63 199.909H167.633V202.172H161.912L161.573 205.451H161.65C161.88 205.127 162.227 204.859 162.692 204.646C163.156 204.433 163.676 204.326 164.252 204.326C165.04 204.326 165.743 204.511 166.361 204.882C166.979 205.253 167.467 205.762 167.825 206.41C168.183 207.053 168.36 207.795 168.355 208.634C168.36 209.516 168.155 210.3 167.742 210.987C167.333 211.668 166.759 212.205 166.022 212.597C165.289 212.985 164.437 213.179 163.465 213.179ZM175.419 213.288C174.319 213.283 173.373 213.013 172.58 212.476C171.792 211.939 171.185 211.161 170.759 210.143C170.337 209.124 170.128 207.899 170.132 206.467C170.132 205.04 170.343 203.823 170.765 202.817C171.191 201.812 171.798 201.047 172.587 200.523C173.379 199.994 174.323 199.73 175.419 199.73C176.514 199.73 177.455 199.994 178.244 200.523C179.036 201.051 179.646 201.818 180.072 202.824C180.498 203.825 180.709 205.04 180.705 206.467C180.705 207.903 180.492 209.131 180.066 210.149C179.644 211.168 179.039 211.945 178.25 212.482C177.462 213.019 176.518 213.288 175.419 213.288ZM175.419 210.993C176.169 210.993 176.767 210.616 177.215 209.862C177.662 209.107 177.884 207.976 177.879 206.467C177.879 205.474 177.777 204.648 177.573 203.987C177.372 203.327 177.087 202.83 176.716 202.498C176.35 202.165 175.917 201.999 175.419 201.999C174.673 201.999 174.076 202.372 173.629 203.118C173.181 203.864 172.955 204.98 172.951 206.467C172.951 207.473 173.051 208.312 173.252 208.986C173.456 209.655 173.744 210.158 174.115 210.494C174.485 210.827 174.92 210.993 175.419 210.993ZM185.136 211.21L185.066 211.913C185.01 212.476 184.904 213.036 184.746 213.594C184.593 214.157 184.431 214.666 184.26 215.122C184.094 215.578 183.96 215.936 183.858 216.196H182.093C182.157 215.945 182.245 215.593 182.355 215.141C182.466 214.694 182.571 214.191 182.669 213.633C182.767 213.075 182.828 212.506 182.854 211.926L182.886 211.21H185.136ZM192.276 213.179C191.373 213.179 190.567 213.013 189.86 212.68C189.157 212.348 188.598 211.89 188.185 211.306C187.772 210.722 187.556 210.053 187.539 209.299H190.224C190.254 209.806 190.467 210.217 190.863 210.533C191.26 210.848 191.73 211.006 192.276 211.006C192.711 211.006 193.094 210.91 193.426 210.718C193.763 210.522 194.025 210.251 194.213 209.906C194.404 209.557 194.5 209.156 194.5 208.705C194.5 208.244 194.402 207.839 194.206 207.49C194.015 207.141 193.748 206.868 193.407 206.672C193.066 206.476 192.676 206.376 192.238 206.371C191.854 206.371 191.481 206.45 191.119 206.608C190.761 206.766 190.482 206.981 190.282 207.254L187.821 206.812L188.441 199.909H196.444V202.172H190.723L190.384 205.451H190.461C190.691 205.127 191.038 204.859 191.502 204.646C191.967 204.433 192.487 204.326 193.062 204.326C193.85 204.326 194.554 204.511 195.172 204.882C195.789 205.253 196.277 205.762 196.635 206.41C196.993 207.053 197.17 207.795 197.166 208.634C197.17 209.516 196.966 210.3 196.552 210.987C196.143 211.668 195.57 212.205 194.833 212.597C194.1 212.985 193.248 213.179 192.276 213.179ZM204.229 213.288C203.13 213.283 202.184 213.013 201.391 212.476C200.603 211.939 199.995 211.161 199.569 210.143C199.147 209.124 198.939 207.899 198.943 206.467C198.943 205.04 199.154 203.823 199.576 202.817C200.002 201.812 200.609 201.047 201.397 200.523C202.19 199.994 203.134 199.73 204.229 199.73C205.324 199.73 206.266 199.994 207.054 200.523C207.847 201.051 208.456 201.818 208.882 202.824C209.309 203.825 209.52 205.04 209.515 206.467C209.515 207.903 209.302 209.131 208.876 210.149C208.454 211.168 207.849 211.945 207.061 212.482C206.272 213.019 205.328 213.288 204.229 213.288ZM204.229 210.993C204.979 210.993 205.578 210.616 206.025 209.862C206.473 209.107 206.694 207.976 206.69 206.467C206.69 205.474 206.588 204.648 206.383 203.987C206.183 203.327 205.897 202.83 205.527 202.498C205.16 202.165 204.728 201.999 204.229 201.999C203.483 201.999 202.887 202.372 202.439 203.118C201.992 203.864 201.766 204.98 201.762 206.467C201.762 207.473 201.862 208.312 202.062 208.986C202.267 209.655 202.554 210.158 202.925 210.494C203.296 210.827 203.73 210.993 204.229 210.993ZM216.622 213.288C215.522 213.283 214.576 213.013 213.784 212.476C212.995 211.939 212.388 211.161 211.962 210.143C211.54 209.124 211.331 207.899 211.335 206.467C211.335 205.04 211.546 203.823 211.968 202.817C212.394 201.812 213.002 201.047 213.79 200.523C214.583 199.994 215.526 199.73 216.622 199.73C217.717 199.73 218.659 199.994 219.447 200.523C220.24 201.051 220.849 201.818 221.275 202.824C221.701 203.825 221.912 205.04 221.908 206.467C221.908 207.903 221.695 209.131 221.269 210.149C220.847 211.168 220.242 211.945 219.453 212.482C218.665 213.019 217.721 213.288 216.622 213.288ZM216.622 210.993C217.372 210.993 217.97 210.616 218.418 209.862C218.865 209.107 219.087 207.976 219.083 206.467C219.083 205.474 218.98 204.648 218.776 203.987C218.575 203.327 218.29 202.83 217.919 202.498C217.553 202.165 217.12 201.999 216.622 201.999C215.876 201.999 215.279 202.372 214.832 203.118C214.384 203.864 214.159 204.98 214.154 206.467C214.154 207.473 214.254 208.312 214.455 208.986C214.659 209.655 214.947 210.158 215.318 210.494C215.688 210.827 216.123 210.993 216.622 210.993ZM224.971 213.166C224.549 213.166 224.187 213.017 223.885 212.719C223.586 212.416 223.437 212.054 223.437 211.632C223.437 211.214 223.586 210.857 223.885 210.558C224.187 210.26 224.549 210.111 224.971 210.111C225.38 210.111 225.738 210.26 226.045 210.558C226.352 210.857 226.505 211.214 226.505 211.632C226.505 211.913 226.433 212.171 226.288 212.406C226.147 212.636 225.962 212.821 225.732 212.962C225.502 213.098 225.248 213.166 224.971 213.166ZM233.321 213.288C232.221 213.283 231.275 213.013 230.483 212.476C229.694 211.939 229.087 211.161 228.661 210.143C228.239 209.124 228.03 207.899 228.035 206.467C228.035 205.04 228.246 203.823 228.667 202.817C229.094 201.812 229.701 201.047 230.489 200.523C231.282 199.994 232.226 199.73 233.321 199.73C234.416 199.73 235.358 199.994 236.146 200.523C236.939 201.051 237.548 201.818 237.974 202.824C238.4 203.825 238.611 205.04 238.607 206.467C238.607 207.903 238.394 209.131 237.968 210.149C237.546 211.168 236.941 211.945 236.153 212.482C235.364 213.019 234.42 213.288 233.321 213.288ZM233.321 210.993C234.071 210.993 234.67 210.616 235.117 209.862C235.564 209.107 235.786 207.976 235.782 206.467C235.782 205.474 235.68 204.648 235.475 203.987C235.275 203.327 234.989 202.83 234.618 202.498C234.252 202.165 233.819 201.999 233.321 201.999C232.575 201.999 231.979 202.372 231.531 203.118C231.084 203.864 230.858 204.98 230.854 206.467C230.854 207.473 230.954 208.312 231.154 208.986C231.358 209.655 231.646 210.158 232.017 210.494C232.388 210.827 232.822 210.993 233.321 210.993ZM245.713 213.288C244.614 213.283 243.668 213.013 242.875 212.476C242.087 211.939 241.48 211.161 241.054 210.143C240.632 209.124 240.423 207.899 240.427 206.467C240.427 205.04 240.638 203.823 241.06 202.817C241.486 201.812 242.093 201.047 242.882 200.523C243.674 199.994 244.618 199.73 245.713 199.73C246.809 199.73 247.75 199.994 248.539 200.523C249.331 201.051 249.941 201.818 250.367 202.824C250.793 203.825 251.004 205.04 251 206.467C251 207.903 250.787 209.131 250.36 210.149C249.939 211.168 249.333 211.945 248.545 212.482C247.757 213.019 246.813 213.288 245.713 213.288ZM245.713 210.993C246.463 210.993 247.062 210.616 247.51 209.862C247.957 209.107 248.179 207.976 248.174 206.467C248.174 205.474 248.072 204.648 247.868 203.987C247.667 203.327 247.382 202.83 247.011 202.498C246.645 202.165 246.212 201.999 245.713 201.999C244.968 201.999 244.371 202.372 243.924 203.118C243.476 203.864 243.25 204.98 243.246 206.467C243.246 207.473 243.346 208.312 243.547 208.986C243.751 209.655 244.039 210.158 244.409 210.494C244.78 210.827 245.215 210.993 245.713 210.993Z" fill="#00CCCC"/>
<rect x="384" y="197" width="56" height="18" rx="8" fill="#F1F4F4"/>
<defs>
<filter id="filter0_d_7416_40" x="227" y="102" width="217" height="44" filterUnits="userSpaceOnUse" color-interpolation-filters="sRGB">
<feFlood flood-opacity="0" result="BackgroundImageFix"/>
<feColorMatrix in="SourceAlpha" type="matrix" values="0 0 0 0 0 0 0 0 0 0 0 0 0 0 0 0 0 0 127 0" result="hardAlpha"/>
<feMorphology radius="2" operator="dilate" in="SourceAlpha" result="effect1_dropShadow_7416_40"/>
<feOffset dy="2"/>
<feGaussianBlur stdDeviation="1"/>
<feComposite in2="hardAlpha" operator="out"/>
<feColorMatrix type="matrix" values="0 0 0 0 0.8 0 0 0 0 0.8 0 0 0 0 0.8 0 0 0 0.1 0"/>
<feBlend mode="normal" in2="BackgroundImageFix" result="effect1_dropShadow_7416_40"/>
<feBlend mode="normal" in="SourceGraphic" in2="effect1_dropShadow_7416_40" result="shape"/>
</filter>
</defs>
</svg>
