<svg width="21" height="25" viewBox="0 0 21 25" fill="none" xmlns="http://www.w3.org/2000/svg">
<path d="M9.80506 12.4392L0.0898438 22.9835C0.0907562 22.9853 0.0907561 22.9881 0.0916686 22.99C0.390051 24.1349 1.41203 24.9775 2.62564 24.9775C3.11108 24.9775 3.56641 24.8432 3.95695 24.608L3.98798 24.5894L14.9232 18.1368L9.80506 12.4392Z" fill="#EA4335"/>
<path d="M19.6332 10.6437L19.624 10.6372L14.9029 7.83877L9.58398 12.6789L14.922 18.1357L19.6177 15.3653C20.4407 14.9099 21.0001 14.0226 21.0001 12.9999C21.0001 11.9828 20.4489 11.1 19.6332 10.6437Z" fill="#FBBC04"/>
<path d="M0.0894234 2.97079C0.0310244 3.191 0 3.42242 0 3.6613V22.2938C0 22.5327 0.0310245 22.7641 0.0903359 22.9834L10.1386 12.7088L0.0894234 2.97079Z" fill="#4285F4"/>
<path d="M9.87666 12.9775L14.9044 7.83699L3.98201 1.36114C3.58508 1.11759 3.12154 0.977626 2.62606 0.977626C1.41246 0.977626 0.38865 1.8221 0.0902675 2.96797C0.0902675 2.9689 0.0893555 2.96984 0.0893555 2.97077L9.87666 12.9775Z" fill="#34A853"/>
</svg>
