<svg width="142" height="178" viewBox="0 0 142 178" fill="none" xmlns="http://www.w3.org/2000/svg">
<rect x="0.0078125" y="0.0825195" width="141.091" height="141.091" rx="12.0077" fill="white"/>
<path d="M64.209 29.2738H33.1107C32.1429 29.2738 31.2148 29.6582 30.5305 30.3425C29.8462 31.0268 29.4618 31.9549 29.4618 32.9226V64.5464C29.4618 65.5141 29.8462 66.4423 30.5305 67.1266C31.2148 67.8109 32.1429 68.1953 33.1107 68.1953H64.209C65.1767 68.1953 66.1048 67.8109 66.7891 67.1266C67.4734 66.4423 67.8579 65.5141 67.8579 64.5464V32.9226C67.8579 31.9549 67.4734 31.0268 66.7891 30.3425C66.1048 29.6582 65.1767 29.2738 64.209 29.2738ZM60.5601 60.8975H36.7596V36.5715H60.5601V60.8975ZM53.525 43.8693H43.7946V53.5997H53.525V43.8693ZM14.6035 58.4649C15.8938 58.4649 17.1313 57.9523 18.0437 57.0399C18.9561 56.1275 19.4687 54.89 19.4687 53.5997V24.4086C19.47 23.1186 19.9829 21.8819 20.8951 20.9698C21.8072 20.0577 23.0439 19.5447 24.3339 19.5434H53.525C54.8153 19.5434 56.0528 19.0308 56.9652 18.1184C57.8776 17.206 58.3902 15.9685 58.3902 14.6782C58.3902 13.3879 57.8776 12.1504 56.9652 11.238C56.0528 10.3256 54.8153 9.81299 53.525 9.81299H24.3339C20.4641 9.81685 16.7539 11.3558 14.0175 14.0922C11.2811 16.8286 9.74215 20.5388 9.73828 24.4086V53.5997C9.73828 54.89 10.2509 56.1275 11.1633 57.0399C12.0757 57.9523 13.3131 58.4649 14.6035 58.4649ZM64.209 73.0605H33.1107C32.1429 73.0605 31.2148 73.4449 30.5305 74.1292C29.8462 74.8135 29.4618 75.7416 29.4618 76.7094V108.333C29.4618 109.301 29.8462 110.229 30.5305 110.913C31.2148 111.598 32.1429 111.982 33.1107 111.982H64.209C65.1767 111.982 66.1048 111.598 66.7891 110.913C67.4734 110.229 67.8579 109.301 67.8579 108.333V76.7094C67.8579 75.7416 67.4734 74.8135 66.7891 74.1292C66.1048 73.4449 65.1767 73.0605 64.209 73.0605ZM60.5601 104.684H36.7596V80.3583H60.5601V104.684ZM53.525 87.6561H43.7946V97.3864H53.525V87.6561ZM53.525 121.712H24.3339C23.0439 121.711 21.8072 121.198 20.8951 120.286C19.9829 119.374 19.47 118.137 19.4687 116.847V87.6561C19.4687 86.3657 18.9561 85.1283 18.0437 84.2159C17.1313 83.3035 15.8938 82.7909 14.6035 82.7909C13.3131 82.7909 12.0757 83.3035 11.1633 84.2159C10.2509 85.1283 9.73828 86.3657 9.73828 87.6561V116.847C9.74215 120.717 11.2811 124.427 14.0175 127.164C16.7539 129.9 20.4641 131.439 24.3339 131.443H53.525C54.8153 131.443 56.0528 130.93 56.9652 130.018C57.8776 129.105 58.3902 127.868 58.3902 126.578C58.3902 125.287 57.8776 124.05 56.9652 123.137C56.0528 122.225 54.8153 121.712 53.525 121.712ZM126.503 82.7909C125.213 82.7909 123.975 83.3035 123.063 84.2159C122.15 85.1283 121.638 86.3657 121.638 87.6561V116.847C121.636 118.137 121.123 119.374 120.211 120.286C119.299 121.198 118.062 121.711 116.773 121.712H87.5814C86.291 121.712 85.0535 122.225 84.1411 123.137C83.2287 124.05 82.7162 125.287 82.7162 126.578C82.7162 127.868 83.2287 129.105 84.1411 130.018C85.0535 130.93 86.291 131.443 87.5814 131.443H116.773C120.642 131.439 124.353 129.9 127.089 127.164C129.825 124.427 131.364 120.717 131.368 116.847V87.6561C131.368 86.3657 130.855 85.1283 129.943 84.2159C129.031 83.3035 127.793 82.7909 126.503 82.7909ZM85.1488 99.819H75.4184V109.549H85.1488V99.819ZM75.4184 85.1943H85.1488V75.4639H75.4184V85.1943ZM116.773 9.81299H87.5814C86.291 9.81299 85.0535 10.3256 84.1411 11.238C83.2287 12.1504 82.7162 13.3879 82.7162 14.6782C82.7162 15.9685 83.2287 17.206 84.1411 18.1184C85.0535 19.0308 86.291 19.5434 87.5814 19.5434H116.773C118.062 19.5447 119.299 20.0577 120.211 20.9698C121.123 21.8819 121.636 23.1186 121.638 24.4086V53.5997C121.638 54.89 122.15 56.1275 123.063 57.0399C123.975 57.9523 125.213 58.4649 126.503 58.4649C127.793 58.4649 129.031 57.9523 129.943 57.0399C130.855 56.1275 131.368 54.89 131.368 53.5997V24.4086C131.364 20.5388 129.825 16.8286 127.089 14.0922C124.353 11.3558 120.642 9.81685 116.773 9.81299ZM87.5814 53.5997H97.3117V43.8693H87.5814V53.5997ZM97.3117 97.3864V87.6561H87.5814V97.3864H97.3117ZM107.996 68.1953C108.963 68.1953 109.892 67.8109 110.576 67.1266C111.26 66.4423 111.645 65.5141 111.645 64.5464V32.9226C111.645 31.9549 111.26 31.0268 110.576 30.3425C109.892 29.6582 108.963 29.2738 107.996 29.2738H76.8974C75.9296 29.2738 75.0015 29.6582 74.3172 30.3425C73.6329 31.0268 73.2485 31.9549 73.2485 32.9226V64.5464C73.2485 65.5141 73.6329 66.4423 74.3172 67.1266C75.0015 67.8109 75.9296 68.1953 76.8974 68.1953H107.996ZM80.5463 36.5715H104.347V60.8975H80.5463V36.5715ZM109.475 75.4639H99.7443V85.1943H109.475V75.4639ZM99.7443 109.549H109.475V99.819H99.7443V109.549Z" fill="#1D2E2E"/>
<path d="M21.5982 152.783C21.5443 152.328 21.3259 151.975 20.9429 151.724C20.5599 151.472 20.0901 151.347 19.5335 151.347C19.1265 151.347 18.7704 151.412 18.4652 151.544C18.163 151.676 17.9266 151.857 17.756 152.087C17.5885 152.318 17.5047 152.579 17.5047 152.873C17.5047 153.118 17.563 153.329 17.6797 153.506C17.7994 153.679 17.952 153.824 18.1376 153.941C18.3231 154.055 18.5176 154.149 18.7211 154.224C18.9245 154.296 19.1116 154.354 19.2821 154.399L20.2157 154.65C20.4551 154.713 20.7214 154.8 21.0147 154.91C21.3109 155.021 21.5937 155.172 21.863 155.364C22.1353 155.552 22.3598 155.795 22.5363 156.091C22.7129 156.387 22.8011 156.751 22.8011 157.182C22.8011 157.678 22.671 158.127 22.4106 158.528C22.1533 158.929 21.7763 159.248 21.2795 159.484C20.7858 159.721 20.1858 159.839 19.4796 159.839C18.8213 159.839 18.2513 159.733 17.7695 159.52C17.2907 159.308 16.9137 159.011 16.6384 158.631C16.3661 158.251 16.212 157.81 16.1761 157.307H17.3251C17.3551 157.654 17.4718 157.942 17.6752 158.169C17.8817 158.394 18.142 158.561 18.4562 158.672C18.7734 158.78 19.1146 158.833 19.4796 158.833C19.9045 158.833 20.2861 158.765 20.6242 158.627C20.9623 158.486 21.2301 158.292 21.4276 158.043C21.6251 157.792 21.7239 157.499 21.7239 157.164C21.7239 156.858 21.6386 156.61 21.468 156.419C21.2975 156.227 21.073 156.071 20.7948 155.952C20.5165 155.832 20.2157 155.727 19.8926 155.638L18.7615 155.314C18.0433 155.108 17.4747 154.813 17.0558 154.43C16.6369 154.047 16.4274 153.546 16.4274 152.927C16.4274 152.412 16.5666 151.963 16.8449 151.58C17.1261 151.194 17.5032 150.895 17.976 150.682C18.4517 150.467 18.9829 150.359 19.5694 150.359C20.1619 150.359 20.6885 150.465 21.1494 150.678C21.6102 150.887 21.9752 151.174 22.2446 151.54C22.5169 151.905 22.6605 152.319 22.6755 152.783H21.5982ZM27.2885 159.821C26.6422 159.821 26.0856 159.668 25.6188 159.363C25.152 159.058 24.7929 158.637 24.5416 158.102C24.2902 157.566 24.1645 156.954 24.1645 156.266C24.1645 155.566 24.2932 154.948 24.5505 154.412C24.8109 153.874 25.1729 153.453 25.6368 153.151C26.1036 152.846 26.6482 152.693 27.2706 152.693C27.7553 152.693 28.1922 152.783 28.5812 152.962C28.9702 153.142 29.2889 153.393 29.5373 153.716C29.7857 154.04 29.9398 154.417 29.9996 154.848H28.9403C28.8595 154.533 28.68 154.255 28.4017 154.013C28.1264 153.767 27.7553 153.645 27.2885 153.645C26.8756 153.645 26.5135 153.752 26.2023 153.968C25.8941 154.18 25.6532 154.481 25.4797 154.87C25.3091 155.256 25.2238 155.709 25.2238 156.23C25.2238 156.763 25.3076 157.227 25.4752 157.622C25.6457 158.016 25.8851 158.323 26.1933 158.542C26.5045 158.76 26.8696 158.869 27.2885 158.869C27.5638 158.869 27.8137 158.821 28.0381 158.726C28.2625 158.63 28.4526 158.492 28.6082 158.313C28.7638 158.133 28.8745 157.918 28.9403 157.666H29.9996C29.9398 158.073 29.7916 158.44 29.5552 158.766C29.3218 159.089 29.0121 159.347 28.6261 159.538C28.2431 159.727 27.7972 159.821 27.2885 159.821ZM33.577 159.839C33.1401 159.839 32.7436 159.757 32.3875 159.592C32.0314 159.424 31.7486 159.184 31.5392 158.869C31.3297 158.552 31.225 158.169 31.225 157.72C31.225 157.325 31.3028 157.005 31.4584 156.76C31.614 156.511 31.8219 156.317 32.0823 156.176C32.3426 156.036 32.6299 155.931 32.9441 155.862C33.2613 155.79 33.58 155.733 33.9001 155.691C34.3191 155.638 34.6587 155.597 34.919 155.57C35.1824 155.54 35.3739 155.491 35.4936 155.422C35.6163 155.353 35.6776 155.234 35.6776 155.063V155.027C35.6776 154.584 35.5564 154.24 35.314 153.995C35.0746 153.749 34.7111 153.627 34.2233 153.627C33.7176 153.627 33.3211 153.737 33.0339 153.959C32.7466 154.18 32.5446 154.417 32.4279 154.668L31.4225 154.309C31.602 153.89 31.8414 153.564 32.1406 153.33C32.4429 153.094 32.772 152.929 33.1281 152.837C33.4872 152.741 33.8403 152.693 34.1874 152.693C34.4088 152.693 34.6632 152.72 34.9505 152.774C35.2407 152.825 35.5205 152.931 35.7898 153.093C36.0621 153.254 36.288 153.498 36.4676 153.824C36.6471 154.15 36.7369 154.587 36.7369 155.135V159.677H35.6776V158.744H35.6237C35.5519 158.893 35.4322 159.053 35.2646 159.224C35.0971 159.394 34.8741 159.54 34.5959 159.659C34.3176 159.779 33.9779 159.839 33.577 159.839ZM33.7385 158.887C34.1575 158.887 34.5106 158.805 34.7978 158.64C35.0881 158.476 35.3065 158.263 35.4532 158.003C35.6028 157.743 35.6776 157.469 35.6776 157.182V156.212C35.6327 156.266 35.534 156.315 35.3814 156.36C35.2317 156.402 35.0582 156.44 34.8607 156.472C34.6662 156.502 34.4762 156.529 34.2906 156.553C34.1081 156.574 33.96 156.592 33.8463 156.607C33.571 156.643 33.3136 156.701 33.0742 156.782C32.8379 156.86 32.6463 156.978 32.4997 157.137C32.3561 157.292 32.2843 157.505 32.2843 157.774C32.2843 158.142 32.4204 158.42 32.6927 158.609C32.968 158.795 33.3166 158.887 33.7385 158.887ZM39.7296 155.53V159.677H38.6703V152.783H39.6937V153.86H39.7835C39.9451 153.51 40.1904 153.229 40.5196 153.016C40.8488 152.801 41.2737 152.693 41.7943 152.693C42.2611 152.693 42.6696 152.789 43.0197 152.98C43.3698 153.169 43.6421 153.456 43.8366 153.842C44.0311 154.225 44.1284 154.71 44.1284 155.296V159.677H43.0691V155.368C43.0691 154.827 42.9284 154.405 42.6472 154.102C42.3659 153.797 41.9799 153.645 41.4891 153.645C41.151 153.645 40.8488 153.718 40.5824 153.865C40.3191 154.011 40.1111 154.225 39.9585 154.506C39.8059 154.788 39.7296 155.129 39.7296 155.53ZM53.1021 156.805H54.3229L55.3463 158.151L55.6156 158.51L57.1417 160.539H55.9209L54.9154 159.192L54.6641 158.851L53.1021 156.805ZM57.5188 155.081C57.5188 156.051 57.3437 156.888 56.9936 157.595C56.6435 158.301 56.1632 158.845 55.5528 159.228C54.9424 159.611 54.2451 159.803 53.4611 159.803C52.6771 159.803 51.9799 159.611 51.3695 159.228C50.759 158.845 50.2788 158.301 49.9287 157.595C49.5786 156.888 49.4035 156.051 49.4035 155.081C49.4035 154.111 49.5786 153.274 49.9287 152.567C50.2788 151.861 50.759 151.317 51.3695 150.934C51.9799 150.551 52.6771 150.359 53.4611 150.359C54.2451 150.359 54.9424 150.551 55.5528 150.934C56.1632 151.317 56.6435 151.861 56.9936 152.567C57.3437 153.274 57.5188 154.111 57.5188 155.081ZM56.4415 155.081C56.4415 154.285 56.3084 153.613 56.042 153.066C55.7787 152.518 55.4211 152.104 54.9693 151.822C54.5204 151.541 54.0177 151.4 53.4611 151.4C52.9046 151.4 52.4003 151.541 51.9485 151.822C51.4997 152.104 51.1421 152.518 50.8757 153.066C50.6124 153.613 50.4808 154.285 50.4808 155.081C50.4808 155.877 50.6124 156.549 50.8757 157.096C51.1421 157.644 51.4997 158.058 51.9485 158.34C52.4003 158.621 52.9046 158.762 53.4611 158.762C54.0177 158.762 54.5204 158.621 54.9693 158.34C55.4211 158.058 55.7787 157.644 56.042 157.096C56.3084 156.549 56.4415 155.877 56.4415 155.081ZM59.3905 159.677V150.485H62.4965C63.2147 150.485 63.8042 150.607 64.265 150.853C64.7258 151.095 65.067 151.429 65.2884 151.854C65.5098 152.279 65.6206 152.762 65.6206 153.304C65.6206 153.845 65.5098 154.325 65.2884 154.744C65.067 155.163 64.7273 155.492 64.2695 155.732C63.8117 155.968 63.2267 156.086 62.5145 156.086H60.0009V155.081H62.4786C62.9693 155.081 63.3643 155.009 63.6636 154.866C63.9658 154.722 64.1842 154.518 64.3189 154.255C64.4565 153.989 64.5254 153.672 64.5254 153.304C64.5254 152.935 64.4565 152.614 64.3189 152.339C64.1812 152.063 63.9613 151.851 63.6591 151.701C63.3568 151.549 62.9574 151.472 62.4606 151.472H60.5036V159.677H59.3905ZM63.7174 155.548L65.9796 159.677H64.6869L62.4606 155.548H63.7174ZM73.6876 159.821C73.0412 159.821 72.4846 159.668 72.0178 159.363C71.551 159.058 71.1919 158.637 70.9406 158.102C70.6892 157.566 70.5635 156.954 70.5635 156.266C70.5635 155.566 70.6922 154.948 70.9496 154.412C71.2099 153.874 71.572 153.453 72.0358 153.151C72.5026 152.846 73.0472 152.693 73.6696 152.693C74.1544 152.693 74.5913 152.783 74.9803 152.962C75.3693 153.142 75.6879 153.393 75.9363 153.716C76.1847 154.04 76.3388 154.417 76.3986 154.848H75.3393C75.2585 154.533 75.079 154.255 74.8007 154.013C74.5254 153.767 74.1544 153.645 73.6876 153.645C73.2746 153.645 72.9125 153.752 72.6013 153.968C72.2931 154.18 72.0522 154.481 71.8787 154.87C71.7081 155.256 71.6228 155.709 71.6228 156.23C71.6228 156.763 71.7066 157.227 71.8742 157.622C72.0448 158.016 72.2841 158.323 72.5924 158.542C72.9036 158.76 73.2686 158.869 73.6876 158.869C73.9629 158.869 74.2127 158.821 74.4371 158.726C74.6616 158.63 74.8516 158.492 75.0072 158.313C75.1628 158.133 75.2735 157.918 75.3393 157.666H76.3986C76.3388 158.073 76.1907 158.44 75.9543 158.766C75.7209 159.089 75.4112 159.347 75.0251 159.538C74.6421 159.727 74.1963 159.821 73.6876 159.821ZM80.748 159.821C80.1256 159.821 79.5795 159.673 79.1097 159.377C78.6429 159.08 78.2778 158.666 78.0145 158.133C77.7542 157.601 77.624 156.978 77.624 156.266C77.624 155.548 77.7542 154.921 78.0145 154.385C78.2778 153.85 78.6429 153.434 79.1097 153.137C79.5795 152.841 80.1256 152.693 80.748 152.693C81.3704 152.693 81.915 152.841 82.3818 153.137C82.8516 153.434 83.2167 153.85 83.477 154.385C83.7404 154.921 83.872 155.548 83.872 156.266C83.872 156.978 83.7404 157.601 83.477 158.133C83.2167 158.666 82.8516 159.08 82.3818 159.377C81.915 159.673 81.3704 159.821 80.748 159.821ZM80.748 158.869C81.2208 158.869 81.6098 158.748 81.915 158.506C82.2203 158.263 82.4462 157.945 82.5928 157.55C82.7394 157.155 82.8127 156.727 82.8127 156.266C82.8127 155.805 82.7394 155.376 82.5928 154.978C82.4462 154.58 82.2203 154.258 81.915 154.013C81.6098 153.767 81.2208 153.645 80.748 153.645C80.2752 153.645 79.8862 153.767 79.581 154.013C79.2758 154.258 79.0499 154.58 78.9032 154.978C78.7566 155.376 78.6833 155.805 78.6833 156.266C78.6833 156.727 78.7566 157.155 78.9032 157.55C79.0499 157.945 79.2758 158.263 79.581 158.506C79.8862 158.748 80.2752 158.869 80.748 158.869ZM88.0924 159.821C87.5178 159.821 87.0106 159.676 86.5708 159.385C86.1309 159.092 85.7868 158.679 85.5384 158.147C85.29 157.611 85.1658 156.978 85.1658 156.248C85.1658 155.524 85.29 154.895 85.5384 154.363C85.7868 153.83 86.1324 153.419 86.5752 153.128C87.0181 152.838 87.5298 152.693 88.1103 152.693C88.5592 152.693 88.9138 152.768 89.1741 152.918C89.4374 153.064 89.6379 153.232 89.7756 153.42C89.9162 153.606 90.0254 153.758 90.1032 153.878H90.193V150.485H91.2523V159.677H90.2289V158.618H90.1032C90.0254 158.744 89.9147 158.902 89.7711 159.094C89.6274 159.282 89.4225 159.451 89.1561 159.601C88.8898 159.748 88.5352 159.821 88.0924 159.821ZM88.236 158.869C88.6609 158.869 89.02 158.759 89.3132 158.537C89.6065 158.313 89.8294 158.003 89.982 157.608C90.1346 157.21 90.211 156.751 90.211 156.23C90.211 155.715 90.1361 155.265 89.9865 154.879C89.8369 154.49 89.6155 154.188 89.3222 153.972C89.029 153.754 88.6669 153.645 88.236 153.645C87.7871 153.645 87.4131 153.76 87.1139 153.99C86.8176 154.218 86.5947 154.527 86.4451 154.919C86.2985 155.308 86.2251 155.745 86.2251 156.23C86.2251 156.721 86.2999 157.167 86.4496 157.568C86.6022 157.966 86.8266 158.283 87.1228 158.519C87.4221 158.753 87.7931 158.869 88.236 158.869ZM96.2301 159.821C95.5658 159.821 94.9927 159.674 94.511 159.381C94.0322 159.085 93.6626 158.672 93.4023 158.142C93.145 157.61 93.0163 156.99 93.0163 156.284C93.0163 155.578 93.145 154.955 93.4023 154.417C93.6626 153.875 94.0247 153.453 94.4885 153.151C94.9553 152.846 95.4999 152.693 96.1223 152.693C96.4814 152.693 96.836 152.753 97.1861 152.873C97.5362 152.992 97.8549 153.187 98.1422 153.456C98.4294 153.722 98.6584 154.076 98.8289 154.515C98.9995 154.955 99.0848 155.497 99.0848 156.14V156.589H93.7704V155.673H98.0075C98.0075 155.284 97.9297 154.937 97.7741 154.632C97.6215 154.327 97.4031 154.086 97.1188 153.909C96.8375 153.733 96.5054 153.645 96.1223 153.645C95.7004 153.645 95.3354 153.749 95.0271 153.959C94.7219 154.165 94.487 154.435 94.3224 154.767C94.1579 155.099 94.0756 155.455 94.0756 155.835V156.446C94.0756 156.966 94.1653 157.408 94.3449 157.77C94.5274 158.129 94.7803 158.403 95.1034 158.591C95.4266 158.777 95.8022 158.869 96.2301 158.869C96.5084 158.869 96.7597 158.83 96.9841 158.753C97.2116 158.672 97.4076 158.552 97.5721 158.394C97.7367 158.232 97.8639 158.031 97.9537 157.792L98.977 158.079C98.8693 158.426 98.6883 158.732 98.4339 158.995C98.1796 159.255 97.8654 159.459 97.4913 159.605C97.1173 159.749 96.6969 159.821 96.2301 159.821ZM106.28 159.839C105.843 159.839 105.447 159.757 105.09 159.592C104.734 159.424 104.452 159.184 104.242 158.869C104.033 158.552 103.928 158.169 103.928 157.72C103.928 157.325 104.006 157.005 104.161 156.76C104.317 156.511 104.525 156.317 104.785 156.176C105.046 156.036 105.333 155.931 105.647 155.862C105.964 155.79 106.283 155.733 106.603 155.691C107.022 155.638 107.362 155.597 107.622 155.57C107.885 155.54 108.077 155.491 108.196 155.422C108.319 155.353 108.381 155.234 108.381 155.063V155.027C108.381 154.584 108.259 154.24 108.017 153.995C107.778 153.749 107.414 153.627 106.926 153.627C106.421 153.627 106.024 153.737 105.737 153.959C105.449 154.18 105.248 154.417 105.131 154.668L104.125 154.309C104.305 153.89 104.544 153.564 104.844 153.33C105.146 153.094 105.475 152.929 105.831 152.837C106.19 152.741 106.543 152.693 106.89 152.693C107.112 152.693 107.366 152.72 107.653 152.774C107.944 152.825 108.223 152.931 108.493 153.093C108.765 153.254 108.991 153.498 109.17 153.824C109.35 154.15 109.44 154.587 109.44 155.135V159.677H108.381V158.744H108.327C108.255 158.893 108.135 159.053 107.968 159.224C107.8 159.394 107.577 159.54 107.299 159.659C107.02 159.779 106.681 159.839 106.28 159.839ZM106.441 158.887C106.86 158.887 107.213 158.805 107.501 158.64C107.791 158.476 108.009 158.263 108.156 158.003C108.306 157.743 108.381 157.469 108.381 157.182V156.212C108.336 156.266 108.237 156.315 108.084 156.36C107.935 156.402 107.761 156.44 107.564 156.472C107.369 156.502 107.179 156.529 106.994 156.553C106.811 156.574 106.663 156.592 106.549 156.607C106.274 156.643 106.017 156.701 105.777 156.782C105.541 156.86 105.349 156.978 105.203 157.137C105.059 157.292 104.987 157.505 104.987 157.774C104.987 158.142 105.123 158.42 105.396 158.609C105.671 158.795 106.02 158.887 106.441 158.887ZM112.433 155.53V159.677H111.373V152.783H112.397V153.86H112.486C112.648 153.51 112.893 153.229 113.223 153.016C113.552 152.801 113.977 152.693 114.497 152.693C114.964 152.693 115.373 152.789 115.723 152.98C116.073 153.169 116.345 153.456 116.54 153.842C116.734 154.225 116.831 154.71 116.831 155.296V159.677H115.772V155.368C115.772 154.827 115.631 154.405 115.35 154.102C115.069 153.797 114.683 153.645 114.192 153.645C113.854 153.645 113.552 153.718 113.285 153.865C113.022 154.011 112.814 154.225 112.661 154.506C112.509 154.788 112.433 155.129 112.433 155.53ZM121.37 159.821C120.796 159.821 120.289 159.676 119.849 159.385C119.409 159.092 119.065 158.679 118.816 158.147C118.568 157.611 118.444 156.978 118.444 156.248C118.444 155.524 118.568 154.895 118.816 154.363C119.065 153.83 119.41 153.419 119.853 153.128C120.296 152.838 120.808 152.693 121.388 152.693C121.837 152.693 122.192 152.768 122.452 152.918C122.715 153.064 122.916 153.232 123.054 153.42C123.194 153.606 123.303 153.758 123.381 153.878H123.471V150.485H124.53V159.677H123.507V158.618H123.381C123.303 158.744 123.193 158.902 123.049 159.094C122.905 159.282 122.7 159.451 122.434 159.601C122.168 159.748 121.813 159.821 121.37 159.821ZM121.514 158.869C121.939 158.869 122.298 158.759 122.591 158.537C122.884 158.313 123.107 158.003 123.26 157.608C123.413 157.21 123.489 156.751 123.489 156.23C123.489 155.715 123.414 155.265 123.264 154.879C123.115 154.49 122.893 154.188 122.6 153.972C122.307 153.754 121.945 153.645 121.514 153.645C121.065 153.645 120.691 153.76 120.392 153.99C120.096 154.218 119.873 154.527 119.723 154.919C119.576 155.308 119.503 155.745 119.503 156.23C119.503 156.721 119.578 157.167 119.728 157.568C119.88 157.966 120.105 158.283 120.401 158.519C120.7 158.753 121.071 158.869 121.514 158.869ZM18.1757 169.327L17.2241 169.596C17.1643 169.438 17.076 169.284 16.9593 169.134C16.8456 168.981 16.69 168.856 16.4925 168.757C16.295 168.658 16.0422 168.609 15.7339 168.609C15.312 168.609 14.9604 168.706 14.6791 168.901C14.4009 169.092 14.2617 169.336 14.2617 169.632C14.2617 169.895 14.3575 170.103 14.549 170.256C14.7405 170.409 15.0397 170.536 15.4467 170.638L16.4701 170.889C17.0865 171.039 17.5458 171.267 17.848 171.576C18.1503 171.881 18.3014 172.274 18.3014 172.756C18.3014 173.151 18.1877 173.504 17.9603 173.815C17.7358 174.127 17.4216 174.372 17.0177 174.552C16.6137 174.731 16.1439 174.821 15.6083 174.821C14.9051 174.821 14.323 174.668 13.8622 174.363C13.4014 174.058 13.1097 173.612 12.987 173.025L13.9924 172.774C14.0881 173.145 14.2692 173.423 14.5355 173.609C14.8048 173.795 15.1564 173.887 15.5903 173.887C16.084 173.887 16.476 173.783 16.7663 173.573C17.0596 173.361 17.2062 173.106 17.2062 172.81C17.2062 172.571 17.1224 172.37 16.9548 172.209C16.7873 172.044 16.5299 171.921 16.1828 171.84L15.0337 171.571C14.4023 171.422 13.9385 171.19 13.6423 170.875C13.349 170.558 13.2024 170.162 13.2024 169.686C13.2024 169.297 13.3116 168.953 13.5301 168.654C13.7515 168.354 14.0522 168.12 14.4323 167.949C14.8153 167.778 15.2492 167.693 15.7339 167.693C16.4162 167.693 16.9518 167.843 17.3408 168.142C17.7328 168.441 18.0111 168.836 18.1757 169.327ZM20.9552 170.53V174.677H19.8959V165.485H20.9552V168.86H21.045C21.2066 168.504 21.449 168.221 21.7721 168.012C22.0983 167.799 22.5322 167.693 23.0738 167.693C23.5436 167.693 23.9551 167.787 24.3082 167.976C24.6612 168.161 24.935 168.447 25.1296 168.833C25.327 169.216 25.4258 169.704 25.4258 170.296V174.677H24.3665V170.368C24.3665 169.821 24.2244 169.397 23.9401 169.098C23.6588 168.796 23.2683 168.645 22.7686 168.645C22.4215 168.645 22.1103 168.718 21.835 168.865C21.5627 169.011 21.3472 169.225 21.1886 169.506C21.033 169.788 20.9552 170.129 20.9552 170.53ZM29.3925 174.839C28.9556 174.839 28.5592 174.757 28.2031 174.592C27.847 174.424 27.5642 174.184 27.3547 173.869C27.1453 173.552 27.0405 173.169 27.0405 172.72C27.0405 172.325 27.1183 172.005 27.2739 171.76C27.4295 171.511 27.6375 171.317 27.8979 171.176C28.1582 171.036 28.4455 170.931 28.7596 170.862C29.0768 170.79 29.3955 170.733 29.7157 170.691C30.1346 170.638 30.4743 170.597 30.7346 170.57C30.9979 170.54 31.1894 170.491 31.3091 170.422C31.4318 170.353 31.4932 170.234 31.4932 170.063V170.027C31.4932 169.584 31.372 169.24 31.1296 168.995C30.8902 168.749 30.5266 168.627 30.0389 168.627C29.5332 168.627 29.1367 168.737 28.8494 168.959C28.5622 169.18 28.3602 169.417 28.2435 169.668L27.238 169.309C27.4176 168.89 27.657 168.564 27.9562 168.33C28.2584 168.094 28.5876 167.929 28.9437 167.837C29.3028 167.741 29.6559 167.693 30.003 167.693C30.2244 167.693 30.4788 167.72 30.766 167.774C31.0563 167.825 31.3361 167.931 31.6054 168.093C31.8777 168.254 32.1036 168.498 32.2831 168.824C32.4627 169.15 32.5525 169.587 32.5525 170.135V174.677H31.4932V173.744H31.4393C31.3675 173.893 31.2478 174.053 31.0802 174.224C30.9126 174.394 30.6897 174.54 30.4114 174.659C30.1331 174.779 29.7935 174.839 29.3925 174.839ZM29.5541 173.887C29.973 173.887 30.3261 173.805 30.6134 173.64C30.9037 173.476 31.1221 173.263 31.2687 173.003C31.4184 172.743 31.4932 172.469 31.4932 172.182V171.212C31.4483 171.266 31.3495 171.315 31.1969 171.36C31.0473 171.402 30.8737 171.44 30.6763 171.472C30.4817 171.502 30.2917 171.529 30.1062 171.553C29.9237 171.574 29.7756 171.592 29.6618 171.607C29.3865 171.643 29.1292 171.701 28.8898 171.782C28.6534 171.86 28.4619 171.978 28.3153 172.137C28.1717 172.292 28.0998 172.505 28.0998 172.774C28.0998 173.142 28.236 173.42 28.5083 173.609C28.7836 173.795 29.1322 173.887 29.5541 173.887ZM34.4859 174.677V167.783H35.5093V168.824H35.5811C35.7068 168.483 35.9342 168.206 36.2633 167.994C36.5925 167.781 36.9636 167.675 37.3765 167.675C37.4543 167.675 37.5516 167.677 37.6683 167.68C37.785 167.683 37.8732 167.687 37.9331 167.693V168.77C37.8972 168.761 37.8149 168.748 37.6862 168.73C37.5605 168.709 37.4274 168.699 37.2867 168.699C36.9516 168.699 36.6523 168.769 36.389 168.909C36.1287 169.047 35.9222 169.239 35.7696 169.484C35.62 169.726 35.5452 170.003 35.5452 170.314V174.677H34.4859ZM41.8695 174.821C41.2052 174.821 40.6322 174.674 40.1504 174.381C39.6716 174.085 39.3021 173.672 39.0417 173.142C38.7844 172.61 38.6557 171.99 38.6557 171.284C38.6557 170.578 38.7844 169.955 39.0417 169.417C39.3021 168.875 39.6642 168.453 40.128 168.151C40.5948 167.846 41.1394 167.693 41.7618 167.693C42.1209 167.693 42.4755 167.753 42.8256 167.873C43.1757 167.992 43.4944 168.187 43.7816 168.456C44.0689 168.722 44.2978 169.076 44.4684 169.515C44.6389 169.955 44.7242 170.497 44.7242 171.14V171.589H39.4098V170.673H43.647C43.647 170.284 43.5692 169.937 43.4136 169.632C43.261 169.327 43.0425 169.086 42.7582 168.909C42.477 168.733 42.1448 168.645 41.7618 168.645C41.3399 168.645 40.9748 168.749 40.6666 168.959C40.3614 169.165 40.1265 169.435 39.9619 169.767C39.7973 170.099 39.715 170.455 39.715 170.835V171.446C39.715 171.966 39.8048 172.408 39.9843 172.77C40.1669 173.129 40.4197 173.403 40.7429 173.591C41.0661 173.777 41.4416 173.869 41.8695 173.869C42.1478 173.869 42.3992 173.83 42.6236 173.753C42.851 173.672 43.047 173.552 43.2116 173.394C43.3762 173.232 43.5033 173.031 43.5931 172.792L44.6165 173.079C44.5088 173.426 44.3277 173.732 44.0734 173.995C43.819 174.255 43.5048 174.459 43.1308 174.605C42.7567 174.749 42.3363 174.821 41.8695 174.821ZM50.5728 177.263C50.3932 177.263 50.2331 177.248 50.0925 177.218C49.9519 177.191 49.8546 177.164 49.8007 177.137L50.0701 176.203C50.3274 176.269 50.5548 176.293 50.7523 176.275C50.9498 176.257 51.1249 176.169 51.2775 176.01C51.4331 175.855 51.5752 175.602 51.7039 175.252L51.9014 174.713L49.3519 167.783H50.501L52.4041 173.277H52.4759L54.379 167.783H55.5281L52.6016 175.683C52.4699 176.039 52.3068 176.334 52.1123 176.567C51.9178 176.803 51.6919 176.978 51.4346 177.092C51.1802 177.206 50.8929 177.263 50.5728 177.263ZM59.4803 174.821C58.8578 174.821 58.3117 174.673 57.8419 174.377C57.3751 174.08 57.0101 173.666 56.7467 173.133C56.4864 172.601 56.3562 171.978 56.3562 171.266C56.3562 170.548 56.4864 169.921 56.7467 169.385C57.0101 168.85 57.3751 168.434 57.8419 168.137C58.3117 167.841 58.8578 167.693 59.4803 167.693C60.1027 167.693 60.6473 167.841 61.1141 168.137C61.5839 168.434 61.9489 168.85 62.2093 169.385C62.4726 169.921 62.6043 170.548 62.6043 171.266C62.6043 171.978 62.4726 172.601 62.2093 173.133C61.9489 173.666 61.5839 174.08 61.1141 174.377C60.6473 174.673 60.1027 174.821 59.4803 174.821ZM59.4803 173.869C59.953 173.869 60.342 173.748 60.6473 173.506C60.9525 173.263 61.1784 172.945 61.325 172.55C61.4717 172.155 61.545 171.727 61.545 171.266C61.545 170.805 61.4717 170.376 61.325 169.978C61.1784 169.58 60.9525 169.258 60.6473 169.013C60.342 168.767 59.953 168.645 59.4803 168.645C59.0075 168.645 58.6185 168.767 58.3132 169.013C58.008 169.258 57.7821 169.58 57.6355 169.978C57.4888 170.376 57.4155 170.805 57.4155 171.266C57.4155 171.727 57.4888 172.155 57.6355 172.55C57.7821 172.945 58.008 173.263 58.3132 173.506C58.6185 173.748 59.0075 173.869 59.4803 173.869ZM68.5662 171.858V167.783H69.6254V174.677H68.5662V173.51H68.4943C68.3327 173.86 68.0814 174.158 67.7403 174.403C67.3991 174.646 66.9682 174.767 66.4476 174.767C66.0167 174.767 65.6336 174.673 65.2985 174.484C64.9634 174.293 64.7 174.005 64.5085 173.622C64.317 173.236 64.2213 172.75 64.2213 172.164V167.783H65.2806V172.092C65.2806 172.595 65.4212 172.996 65.7025 173.295C65.9867 173.594 66.3488 173.744 66.7887 173.744C67.052 173.744 67.3198 173.676 67.5921 173.542C67.8674 173.407 68.0978 173.201 68.2834 172.922C68.4719 172.644 68.5662 172.289 68.5662 171.858ZM71.5656 174.677V167.783H72.589V168.824H72.6608C72.7865 168.483 73.0139 168.206 73.3431 167.994C73.6722 167.781 74.0433 167.675 74.4562 167.675C74.534 167.675 74.6313 167.677 74.748 167.68C74.8647 167.683 74.9529 167.687 75.0128 167.693V168.77C74.9769 168.761 74.8946 168.748 74.7659 168.73C74.6402 168.709 74.5071 168.699 74.3664 168.699C74.0313 168.699 73.7321 168.769 73.4687 168.909C73.2084 169.047 73.0019 169.239 72.8493 169.484C72.6997 169.726 72.6249 170.003 72.6249 170.314V174.677H71.5656ZM84.7069 169.327L83.7553 169.596C83.6955 169.438 83.6072 169.284 83.4905 169.134C83.3768 168.981 83.2212 168.856 83.0237 168.757C82.8262 168.658 82.5733 168.609 82.2651 168.609C81.8432 168.609 81.4916 168.706 81.2103 168.901C80.932 169.092 80.7929 169.336 80.7929 169.632C80.7929 169.895 80.8887 170.103 81.0802 170.256C81.2717 170.409 81.5709 170.536 81.9779 170.638L83.0013 170.889C83.6177 171.039 84.077 171.267 84.3792 171.576C84.6815 171.881 84.8326 172.274 84.8326 172.756C84.8326 173.151 84.7189 173.504 84.4914 173.815C84.267 174.127 83.9528 174.372 83.5489 174.552C83.1449 174.731 82.6751 174.821 82.1395 174.821C81.4363 174.821 80.8542 174.668 80.3934 174.363C79.9326 174.058 79.6408 173.612 79.5182 173.025L80.5236 172.774C80.6193 173.145 80.8004 173.423 81.0667 173.609C81.336 173.795 81.6876 173.887 82.1215 173.887C82.6152 173.887 83.0072 173.783 83.2975 173.573C83.5907 173.361 83.7374 173.106 83.7374 172.81C83.7374 172.571 83.6536 172.37 83.486 172.209C83.3184 172.044 83.0611 171.921 82.714 171.84L81.5649 171.571C80.9335 171.422 80.4697 171.19 80.1735 170.875C79.8802 170.558 79.7336 170.162 79.7336 169.686C79.7336 169.297 79.8428 168.953 80.0613 168.654C80.2827 168.354 80.5834 168.12 80.9635 167.949C81.3465 167.778 81.7804 167.693 82.2651 167.693C82.9474 167.693 83.483 167.843 83.872 168.142C84.264 168.441 84.5423 168.836 84.7069 169.327ZM89.3177 174.821C88.6534 174.821 88.0804 174.674 87.5986 174.381C87.1199 174.085 86.7503 173.672 86.49 173.142C86.2326 172.61 86.104 171.99 86.104 171.284C86.104 170.578 86.2326 169.955 86.49 169.417C86.7503 168.875 87.1124 168.453 87.5762 168.151C88.043 167.846 88.5876 167.693 89.21 167.693C89.5691 167.693 89.9237 167.753 90.2738 167.873C90.6239 167.992 90.9426 168.187 91.2298 168.456C91.5171 168.722 91.746 169.076 91.9166 169.515C92.0872 169.955 92.1724 170.497 92.1724 171.14V171.589H86.858V170.673H91.0952C91.0952 170.284 91.0174 169.937 90.8618 169.632C90.7092 169.327 90.4907 169.086 90.2065 168.909C89.9252 168.733 89.593 168.645 89.21 168.645C88.7881 168.645 88.423 168.749 88.1148 168.959C87.8096 169.165 87.5747 169.435 87.4101 169.767C87.2455 170.099 87.1632 170.455 87.1632 170.835V171.446C87.1632 171.966 87.253 172.408 87.4326 172.77C87.6151 173.129 87.8679 173.403 88.1911 173.591C88.5143 173.777 88.8898 173.869 89.3177 173.869C89.596 173.869 89.8474 173.83 90.0718 173.753C90.2992 173.672 90.4952 173.552 90.6598 173.394C90.8244 173.232 90.9516 173.031 91.0413 172.792L92.0647 173.079C91.957 173.426 91.776 173.732 91.5216 173.995C91.2673 174.255 90.9531 174.459 90.579 174.605C90.205 174.749 89.7845 174.821 89.3177 174.821ZM93.7838 174.677V167.783H94.8072V168.824H94.879C95.0047 168.483 95.2321 168.206 95.5613 167.994C95.8904 167.781 96.2615 167.675 96.6744 167.675C96.7522 167.675 96.8495 167.677 96.9662 167.68C97.0829 167.683 97.1712 167.687 97.231 167.693V168.77C97.1951 168.761 97.1128 168.748 96.9841 168.73C96.8585 168.709 96.7253 168.699 96.5847 168.699C96.2495 168.699 95.9503 168.769 95.687 168.909C95.4266 169.047 95.2202 169.239 95.0675 169.484C94.9179 169.726 94.8431 170.003 94.8431 170.314V174.677H93.7838ZM104.334 167.783L101.785 174.677H100.707L98.1579 167.783H99.307L101.21 173.277H101.282L103.185 167.783H104.334ZM105.732 174.677V167.783H106.792V174.677H105.732ZM106.271 166.634C106.064 166.634 105.886 166.563 105.737 166.423C105.59 166.282 105.517 166.113 105.517 165.916C105.517 165.718 105.59 165.549 105.737 165.408C105.886 165.268 106.064 165.197 106.271 165.197C106.477 165.197 106.654 165.268 106.801 165.408C106.95 165.549 107.025 165.718 107.025 165.916C107.025 166.113 106.95 166.282 106.801 166.423C106.654 166.563 106.477 166.634 106.271 166.634ZM111.533 174.821C110.886 174.821 110.33 174.668 109.863 174.363C109.396 174.058 109.037 173.637 108.786 173.102C108.534 172.566 108.409 171.954 108.409 171.266C108.409 170.566 108.537 169.948 108.795 169.412C109.055 168.874 109.417 168.453 109.881 168.151C110.348 167.846 110.892 167.693 111.515 167.693C111.999 167.693 112.436 167.783 112.825 167.962C113.214 168.142 113.533 168.393 113.781 168.716C114.03 169.04 114.184 169.417 114.244 169.848H113.184C113.104 169.533 112.924 169.255 112.646 169.013C112.37 168.767 111.999 168.645 111.533 168.645C111.12 168.645 110.758 168.752 110.446 168.968C110.138 169.18 109.897 169.481 109.724 169.87C109.553 170.256 109.468 170.709 109.468 171.23C109.468 171.763 109.552 172.227 109.719 172.622C109.89 173.016 110.129 173.323 110.437 173.542C110.749 173.76 111.114 173.869 111.533 173.869C111.808 173.869 112.058 173.821 112.282 173.726C112.507 173.63 112.697 173.492 112.852 173.313C113.008 173.133 113.119 172.918 113.184 172.666H114.244C114.184 173.073 114.036 173.44 113.799 173.766C113.566 174.089 113.256 174.347 112.87 174.538C112.487 174.727 112.041 174.821 111.533 174.821ZM118.683 174.821C118.019 174.821 117.445 174.674 116.964 174.381C116.485 174.085 116.115 173.672 115.855 173.142C115.598 172.61 115.469 171.99 115.469 171.284C115.469 170.578 115.598 169.955 115.855 169.417C116.115 168.875 116.477 168.453 116.941 168.151C117.408 167.846 117.953 167.693 118.575 167.693C118.934 167.693 119.289 167.753 119.639 167.873C119.989 167.992 120.308 168.187 120.595 168.456C120.882 168.722 121.111 169.076 121.282 169.515C121.452 169.955 121.538 170.497 121.538 171.14V171.589H116.223V170.673H120.46C120.46 170.284 120.382 169.937 120.227 169.632C120.074 169.327 119.856 169.086 119.572 168.909C119.29 168.733 118.958 168.645 118.575 168.645C118.153 168.645 117.788 168.749 117.48 168.959C117.175 169.165 116.94 169.435 116.775 169.767C116.611 170.099 116.528 170.455 116.528 170.835V171.446C116.528 171.966 116.618 172.408 116.798 172.77C116.98 173.129 117.233 173.403 117.556 173.591C117.879 173.777 118.255 173.869 118.683 173.869C118.961 173.869 119.212 173.83 119.437 173.753C119.664 173.672 119.86 173.552 120.025 173.394C120.189 173.232 120.317 173.031 120.406 172.792L121.43 173.079C121.322 173.426 121.141 173.732 120.887 173.995C120.632 174.255 120.318 174.459 119.944 174.605C119.57 174.749 119.15 174.821 118.683 174.821ZM128.032 169.327L127.081 169.596C127.021 169.438 126.933 169.284 126.816 169.134C126.702 168.981 126.547 168.856 126.349 168.757C126.152 168.658 125.899 168.609 125.591 168.609C125.169 168.609 124.817 168.706 124.536 168.901C124.258 169.092 124.118 169.336 124.118 169.632C124.118 169.895 124.214 170.103 124.406 170.256C124.597 170.409 124.896 170.536 125.303 170.638L126.327 170.889C126.943 171.039 127.403 171.267 127.705 171.576C128.007 171.881 128.158 172.274 128.158 172.756C128.158 173.151 128.044 173.504 127.817 173.815C127.593 174.127 127.278 174.372 126.874 174.552C126.47 174.731 126.001 174.821 125.465 174.821C124.762 174.821 124.18 174.668 123.719 174.363C123.258 174.058 122.966 173.612 122.844 173.025L123.849 172.774C123.945 173.145 124.126 173.423 124.392 173.609C124.662 173.795 125.013 173.887 125.447 173.887C125.941 173.887 126.333 173.783 126.623 173.573C126.916 173.361 127.063 173.106 127.063 172.81C127.063 172.571 126.979 172.37 126.812 172.209C126.644 172.044 126.387 171.921 126.04 171.84L124.89 171.571C124.259 171.422 123.795 171.19 123.499 170.875C123.206 170.558 123.059 170.162 123.059 169.686C123.059 169.297 123.168 168.953 123.387 168.654C123.608 168.354 123.909 168.12 124.289 167.949C124.672 167.778 125.106 167.693 125.591 167.693C126.273 167.693 126.809 167.843 127.198 168.142C127.59 168.441 127.868 168.836 128.032 169.327Z" fill="#1D2E2E"/>
</svg>
