<svg width="24" height="25" viewBox="0 0 24 25" fill="none" xmlns="http://www.w3.org/2000/svg">
<path d="M22 6.23136C21.2483 6.55746 20.4534 6.77303 19.64 6.87136C20.4982 6.35868 21.1413 5.55214 21.45 4.60136C20.6436 5.08143 19.7608 5.41966 18.84 5.60136C18.2245 4.93393 17.405 4.48966 16.5098 4.33821C15.6147 4.18677 14.6945 4.33672 13.8938 4.76455C13.093 5.19238 12.4569 5.87389 12.0852 6.7022C11.7135 7.5305 11.6273 8.45875 11.84 9.34136C10.2094 9.25889 8.61444 8.83432 7.15865 8.09522C5.70287 7.35613 4.41885 6.31906 3.39 5.05136C3.02914 5.68153 2.83952 6.39518 2.84 7.12136C2.83872 7.79574 3.00422 8.45998 3.32176 9.05493C3.63929 9.64987 4.09902 10.1571 4.66 10.5314C4.00798 10.5136 3.36989 10.3387 2.8 10.0214V10.0714C2.80489 11.0163 3.13599 11.9305 3.73731 12.6593C4.33864 13.3882 5.17326 13.887 6.1 14.0714C5.74326 14.1799 5.37287 14.2372 5 14.2414C4.74189 14.2383 4.48442 14.2149 4.23 14.1714C4.49391 14.9842 5.00462 15.6945 5.69107 16.2035C6.37753 16.7125 7.20558 16.9949 8.06 17.0114C6.6172 18.1466 4.83588 18.7662 3 18.7714C2.66574 18.7725 2.33174 18.7524 2 18.7114C3.87443 19.9216 6.05881 20.5641 8.29 20.5614C9.82969 20.5774 11.3571 20.2864 12.7831 19.7054C14.2091 19.1245 15.505 18.2652 16.5952 17.1779C17.6854 16.0905 18.548 14.7968 19.1326 13.3723C19.7172 11.9478 20.012 10.4211 20 8.88136C20 8.71136 20 8.53136 20 8.35136C20.7847 7.76617 21.4615 7.04879 22 6.23136Z" fill="white"/>
</svg>
