<svg width="21" height="25" viewBox="0 0 21 25" fill="none" xmlns="http://www.w3.org/2000/svg">
<path d="M17.5043 13.7405C17.5164 12.8206 17.7667 11.9187 18.2319 11.1186C18.697 10.3185 19.3619 9.64623 20.1646 9.16441C19.6546 8.45336 18.9819 7.86819 18.1998 7.45539C17.4176 7.04258 16.5477 6.81351 15.659 6.78637C13.7634 6.5921 11.9256 7.89382 10.9596 7.89382C9.97487 7.89382 8.48756 6.80566 6.88596 6.83782C5.85001 6.8705 4.8404 7.16461 3.95549 7.69149C3.07058 8.21837 2.34055 8.96006 1.83654 9.84429C-0.346677 13.5347 1.28181 18.9583 3.37319 21.9414C4.41955 23.4021 5.64245 25.0338 7.2426 24.9759C8.80844 24.9125 9.39325 24.0011 11.2833 24.0011C13.1559 24.0011 13.7046 24.9759 15.3372 24.9391C17.0174 24.9125 18.076 23.4719 19.0857 21.9974C19.8375 20.9566 20.416 19.8062 20.7998 18.589C19.8236 18.1859 18.9906 17.5112 18.4046 16.649C17.8185 15.7868 17.5054 14.7753 17.5043 13.7405Z" fill="white"/>
<path d="M14.4208 4.82467C15.337 3.75096 15.7883 2.37089 15.679 0.977539C14.2794 1.12106 12.9865 1.77413 12.058 2.80664C11.6041 3.31105 11.2564 3.89787 11.0348 4.53354C10.8133 5.16922 10.7222 5.84129 10.7669 6.51134C11.467 6.51838 12.1595 6.37024 12.7925 6.07808C13.4254 5.78592 13.9822 5.35736 14.4208 4.82467Z" fill="white"/>
</svg>
