<svg width="89" height="19" viewBox="0 0 89 19" fill="none" xmlns="http://www.w3.org/2000/svg">
<path d="M69.0218 14.6691H70.9763V1.45531H69.0218V14.6691ZM86.6265 6.21508L84.386 11.9441H84.3189L81.9936 6.21508H79.8882L83.3752 14.222L81.3881 18.6763H83.4255L88.8 6.21508H86.6265ZM75.5422 13.1682C74.9012 13.1682 74.0087 12.8458 74.0087 12.0456C74.0087 11.0266 75.1201 10.6355 76.0806 10.6355C76.9396 10.6355 77.3449 10.8226 77.8666 11.0774C77.7147 12.3014 76.6704 13.1682 75.5422 13.1682ZM75.7779 5.92651C74.3628 5.92651 72.8963 6.55543 72.2909 7.94964L74.0255 8.68005C74.3963 7.94964 75.0866 7.71076 75.8114 7.71076C76.8222 7.71076 77.8498 8.32277 77.8666 9.4115V9.5468C77.5125 9.3428 76.7552 9.03732 75.8282 9.03732C73.9585 9.03732 72.0542 10.0743 72.0542 12.0118C72.0542 13.7802 73.5877 14.9196 75.3055 14.9196C76.6201 14.9196 77.3449 14.3245 77.7995 13.6269H77.8666V14.6469H79.753V9.58063C79.753 7.2351 78.0184 5.92651 75.7779 5.92651ZM63.6985 7.82386H60.9185V3.29453H63.6985C65.1597 3.29453 65.9893 4.51539 65.9893 5.55867C65.9893 6.58292 65.1597 7.82386 63.6985 7.82386ZM63.6482 1.45531H58.965V14.6691H60.9185V9.66307H63.6482C65.8144 9.66307 67.9439 8.07966 67.9439 5.55867C67.9439 3.03767 65.8144 1.45531 63.6482 1.45531ZM38.11 13.1703C36.7598 13.1703 35.6296 12.0297 35.6296 10.4632C35.6296 8.87982 36.7598 7.72133 38.11 7.72133C39.4434 7.72133 40.4888 8.87982 40.4888 10.4632C40.4888 12.0297 39.4434 13.1703 38.11 13.1703ZM40.3547 6.95499H40.2866C39.8477 6.42754 39.0045 5.95082 37.9413 5.95082C35.7134 5.95082 33.6719 7.92533 33.6719 10.4632C33.6719 12.9832 35.7134 14.9418 37.9413 14.9418C39.0045 14.9418 39.8477 14.4651 40.2866 13.9197H40.3547V14.5676C40.3547 16.2874 39.4434 17.207 37.9748 17.207C36.7765 17.207 36.0339 16.3382 35.7301 15.6056L34.0259 16.3212C34.5151 17.5136 35.815 18.9775 37.9748 18.9775C40.2698 18.9775 42.2108 17.615 42.2108 14.2949V6.22247H40.3547V6.95499ZM43.561 14.6691H45.5187V1.45426H43.561V14.6691ZM48.4034 10.31C48.3531 8.57329 49.7368 7.6875 50.7319 7.6875C51.5092 7.6875 52.167 8.0786 52.3859 8.64094L48.4034 10.31ZM54.4787 8.81112C54.1079 7.80695 52.9767 5.95082 50.6649 5.95082C48.3699 5.95082 46.4635 7.77206 46.4635 10.4463C46.4635 12.9663 48.3531 14.9418 50.8838 14.9418C52.9264 14.9418 54.1079 13.6819 54.5971 12.9494L53.0783 11.9272C52.5723 12.6766 51.88 13.1703 50.8838 13.1703C49.8887 13.1703 49.1796 12.7105 48.7239 11.8088L54.6809 9.32166L54.4787 8.81112ZM7.02012 7.33023V9.2371H11.542C11.4069 10.31 11.0529 11.0932 10.5134 11.6376C9.85456 12.3025 8.8249 13.035 7.02012 13.035C4.23491 13.035 2.05827 10.7698 2.05827 7.96021C2.05827 5.1496 4.23491 2.88546 7.02012 2.88546C8.52219 2.88546 9.61889 3.48162 10.4286 4.24796L11.762 2.90237C10.6307 1.81258 9.12972 0.977539 7.02012 0.977539C3.20629 0.977539 0 4.1116 0 7.96021C0 11.8088 3.20629 14.9418 7.02012 14.9418C9.07839 14.9418 10.6307 14.2601 11.8458 12.9832C13.0954 11.7232 13.483 9.9527 13.483 8.52149C13.483 8.0786 13.4495 7.67059 13.3814 7.33023H7.02012ZM18.625 13.1703C17.2748 13.1703 16.11 12.0467 16.11 10.4463C16.11 8.82803 17.2748 7.72133 18.625 7.72133C19.9741 7.72133 21.1389 8.82803 21.1389 10.4463C21.1389 12.0467 19.9741 13.1703 18.625 13.1703ZM18.625 5.95082C16.1603 5.95082 14.1523 7.84077 14.1523 10.4463C14.1523 13.035 16.1603 14.9418 18.625 14.9418C21.0886 14.9418 23.0966 13.035 23.0966 10.4463C23.0966 7.84077 21.0886 5.95082 18.625 5.95082ZM28.3801 13.1703C27.0299 13.1703 25.8651 12.0467 25.8651 10.4463C25.8651 8.82803 27.0299 7.72133 28.3801 7.72133C29.7302 7.72133 30.894 8.82803 30.894 10.4463C30.894 12.0467 29.7302 13.1703 28.3801 13.1703ZM28.3801 5.95082C25.9164 5.95082 23.9084 7.84077 23.9084 10.4463C23.9084 13.035 25.9164 14.9418 28.3801 14.9418C30.8437 14.9418 32.8517 13.035 32.8517 10.4463C32.8517 7.84077 30.8437 5.95082 28.3801 5.95082Z" fill="white"/>
</svg>
