<svg width="24" height="25" viewBox="0 0 24 25" fill="none" xmlns="http://www.w3.org/2000/svg">
<path d="M13.2336 0.432629C14.1092 0.429269 14.9849 0.438069 15.8603 0.459027L16.0931 0.467427C16.3619 0.477027 16.627 0.489026 16.9474 0.503425C18.2242 0.563422 19.0953 0.765012 19.8597 1.0614C20.6516 1.36618 21.3188 1.77896 21.986 2.44613C22.596 3.04562 23.0681 3.77079 23.3695 4.57122C23.6659 5.33558 23.8675 6.20793 23.9275 7.48467C23.9419 7.80385 23.9539 8.07024 23.9635 8.33902L23.9707 8.57181C23.992 9.4468 24.0012 10.322 23.9983 11.1973L23.9995 12.0924V13.6643C24.0024 14.54 23.9932 15.4156 23.9719 16.291L23.9647 16.5238C23.9551 16.7926 23.9431 17.0578 23.9287 17.3782C23.8687 18.6549 23.6647 19.526 23.3695 20.2904C23.0691 21.0917 22.5968 21.8174 21.986 22.4167C21.386 23.0267 20.6604 23.4987 19.8597 23.8002C19.0953 24.0966 18.2242 24.2982 16.9474 24.3582C16.627 24.3726 16.3619 24.3846 16.0931 24.3942L15.8603 24.4014C14.9849 24.4227 14.1093 24.4319 13.2336 24.429L12.3385 24.4302H10.7677C9.8921 24.4332 9.01646 24.424 8.14108 24.4026L7.90829 24.3954C7.62343 24.3851 7.33864 24.3731 7.05393 24.3594C5.7772 24.2994 4.90604 24.0954 4.14048 23.8002C3.33974 23.4995 2.61444 23.0273 2.01539 22.4167C1.40467 21.8171 0.932114 21.0914 0.63066 20.2904C0.334275 19.526 0.132686 18.6549 0.0726886 17.3782C0.0593248 17.0934 0.0473253 16.8086 0.0366905 16.5238L0.0306909 16.291C0.00856838 15.4156 -0.00143218 14.54 0.000692365 13.6643V11.1973C-0.00265662 10.322 0.00614386 9.4468 0.0270911 8.57181L0.0354906 8.33902C0.0450901 8.07024 0.0570895 7.80385 0.0714887 7.48467C0.131486 6.20673 0.333075 5.33678 0.62946 4.57122C0.931092 3.7704 1.40458 3.04543 2.01659 2.44733C2.61523 1.83626 3.34007 1.36327 4.14048 1.0614C4.90604 0.765012 5.776 0.563422 7.05393 0.503425L7.90829 0.467427L8.14108 0.461427C9.01605 0.439316 9.89129 0.429315 10.7665 0.431429L13.2336 0.432629ZM12.0001 6.43232C11.2051 6.42108 10.4159 6.56794 9.67817 6.86438C8.94047 7.16082 8.26904 7.60092 7.70291 8.1591C7.13678 8.71728 6.68723 9.38241 6.38039 10.1158C6.07355 10.8493 5.91554 11.6364 5.91554 12.4314C5.91554 13.2264 6.07355 14.0135 6.38039 14.747C6.68723 15.4804 7.13678 16.1455 7.70291 16.7037C8.26904 17.2619 8.94047 17.702 9.67817 17.9984C10.4159 18.2949 11.2051 18.4417 12.0001 18.4305C13.5913 18.4305 15.1173 17.7984 16.2425 16.6732C17.3677 15.5481 17.9998 14.022 17.9998 12.4308C17.9998 10.8396 17.3677 9.31355 16.2425 8.18839C15.1173 7.06323 13.5913 6.43232 12.0001 6.43232ZM12.0001 8.8322C12.4783 8.82339 12.9534 8.90995 13.3978 9.08683C13.8421 9.26372 14.2468 9.52737 14.5881 9.8624C14.9294 10.1974 15.2005 10.5971 15.3856 11.0381C15.5707 11.4791 15.6661 11.9525 15.6662 12.4308C15.6663 12.9091 15.5711 13.3826 15.3861 13.8236C15.2011 14.2647 14.9301 14.6644 14.5889 14.9996C14.2477 15.3347 13.8432 15.5985 13.3989 15.7755C12.9546 15.9526 12.4795 16.0393 12.0013 16.0306C11.0465 16.0306 10.1309 15.6514 9.45582 14.9763C8.78073 14.3012 8.40146 13.3855 8.40146 12.4308C8.40146 11.4761 8.78073 10.5605 9.45582 9.88536C10.1309 9.21026 11.0465 8.831 12.0013 8.831L12.0001 8.8322ZM18.2998 4.63241C17.9126 4.64791 17.5465 4.81258 17.2781 5.09196C17.0097 5.37133 16.8598 5.74372 16.8598 6.13114C16.8598 6.51855 17.0097 6.89095 17.2781 7.17032C17.5465 7.44969 17.9126 7.61437 18.2998 7.62986C18.6976 7.62986 19.0791 7.47183 19.3604 7.19054C19.6417 6.90925 19.7997 6.52774 19.7997 6.12994C19.7997 5.73213 19.6417 5.35062 19.3604 5.06933C19.0791 4.78804 18.6976 4.63001 18.2998 4.63001V4.63241Z" fill="white"/>
</svg>
