<svg width="24" height="25" viewBox="0 0 24 25" fill="none" xmlns="http://www.w3.org/2000/svg">
<path d="M21.3333 0.431152C22.0406 0.431152 22.7189 0.712104 23.219 1.2122C23.719 1.7123 24 2.39058 24 3.09782V21.7645C24 22.4717 23.719 23.15 23.219 23.6501C22.7189 24.1502 22.0406 24.4312 21.3333 24.4312H2.66667C1.95942 24.4312 1.28115 24.1502 0.781048 23.6501C0.280951 23.15 0 22.4717 0 21.7645V3.09782C0 2.39058 0.280951 1.7123 0.781048 1.2122C1.28115 0.712104 1.95942 0.431152 2.66667 0.431152H21.3333ZM20.6667 21.0978V14.0312C20.6667 12.8783 20.2087 11.7728 19.3936 10.9576C18.5784 10.1424 17.4728 9.68449 16.32 9.68449C15.1867 9.68449 13.8667 10.3778 13.2267 11.4178V9.93782H9.50667V21.0978H13.2267V14.5245C13.2267 13.4978 14.0533 12.6578 15.08 12.6578C15.5751 12.6578 16.0499 12.8545 16.3999 13.2046C16.75 13.5546 16.9467 14.0294 16.9467 14.5245V21.0978H20.6667ZM5.17333 7.84449C5.76742 7.84449 6.33717 7.60849 6.75725 7.18841C7.17733 6.76832 7.41333 6.19857 7.41333 5.60449C7.41333 4.36449 6.41333 3.35115 5.17333 3.35115C4.57571 3.35115 4.00257 3.58856 3.57999 4.01114C3.1574 4.43372 2.92 5.00686 2.92 5.60449C2.92 6.84449 3.93333 7.84449 5.17333 7.84449ZM7.02667 21.0978V9.93782H3.33333V21.0978H7.02667Z" fill="white"/>
</svg>
