<svg width="24" height="24" viewBox="0 0 24 24" fill="none" xmlns="http://www.w3.org/2000/svg">
<g clip-path="url(#clip0_83_673)">
<path d="M2.99927 8.25V9.75H1.49927C1.30036 9.75 1.10959 9.67098 0.968937 9.53033C0.828285 9.38968 0.749268 9.19891 0.749268 9C0.749268 8.80109 0.828285 8.61032 0.968937 8.46967C1.10959 8.32902 1.30036 8.25 1.49927 8.25H2.99927ZM2.99927 11.25V12.75H1.49927C1.30036 12.75 1.10959 12.671 0.968937 12.5303C0.828285 12.3897 0.749268 12.1989 0.749268 12C0.749268 11.8011 0.828285 11.6103 0.968937 11.4697C1.10959 11.329 1.30036 11.25 1.49927 11.25H2.99927ZM2.99927 14.25V15.75H1.49927C1.30036 15.75 1.10959 15.671 0.968937 15.5303C0.828285 15.3897 0.749268 15.1989 0.749268 15C0.749268 14.8011 0.828285 14.6103 0.968937 14.4697C1.10959 14.329 1.30036 14.25 1.49927 14.25H2.99927Z" fill="#F2F1F2"/>
<path d="M20.9993 0H4.49927C3.90253 0 3.33023 0.237053 2.90828 0.65901C2.48632 1.08097 2.24927 1.65326 2.24927 2.25V8.25H4.49927C4.69818 8.25 4.88895 8.32902 5.0296 8.46967C5.17025 8.61032 5.24927 8.80109 5.24927 9C5.24927 9.19891 5.17025 9.38968 5.0296 9.53033C4.88895 9.67098 4.69818 9.75 4.49927 9.75H2.24927V11.25H4.49927C4.69818 11.25 4.88895 11.329 5.0296 11.4697C5.17025 11.6103 5.24927 11.8011 5.24927 12C5.24927 12.1989 5.17025 12.3897 5.0296 12.5303C4.88895 12.671 4.69818 12.75 4.49927 12.75H2.24927V14.25H4.49927C4.69818 14.25 4.88895 14.329 5.0296 14.4697C5.17025 14.6103 5.24927 14.8011 5.24927 15C5.24927 15.1989 5.17025 15.3897 5.0296 15.5303C4.88895 15.671 4.69818 15.75 4.49927 15.75H2.24927V21.75C2.24927 22.3467 2.48632 22.919 2.90828 23.341C3.33023 23.7629 3.90253 24 4.49927 24H20.9993C21.596 24 22.1683 23.7629 22.5903 23.341C23.0122 22.919 23.2493 22.3467 23.2493 21.75V2.25C23.2493 1.65326 23.0122 1.08097 22.5903 0.65901C22.1683 0.237053 21.596 0 20.9993 0V0ZM12.7493 7.125C13.1201 7.125 13.4826 7.23497 13.791 7.44099C14.0993 7.64702 14.3396 7.93986 14.4815 8.28247C14.6235 8.62508 14.6606 9.00208 14.5882 9.3658C14.5159 9.72951 14.3373 10.0636 14.0751 10.3258C13.8129 10.588 13.4788 10.7666 13.1151 10.839C12.7513 10.9113 12.3743 10.8742 12.0317 10.7323C11.6891 10.5904 11.3963 10.35 11.1903 10.0417C10.9842 9.73335 10.8743 9.37084 10.8743 9C10.8743 8.50272 11.0718 8.02581 11.4234 7.67417C11.7751 7.32254 12.252 7.125 12.7493 7.125ZM16.8743 16.5C16.8743 16.5995 16.8348 16.6948 16.7644 16.7652C16.6941 16.8355 16.5987 16.875 16.4993 16.875H8.99927C8.89981 16.875 8.80443 16.8355 8.7341 16.7652C8.66378 16.6948 8.62427 16.5995 8.62427 16.5V15.75C8.62625 14.8555 8.98246 13.9982 9.61497 13.3657C10.2475 12.7332 11.1048 12.377 11.9993 12.375H13.4993C14.3938 12.377 15.2511 12.7332 15.8836 13.3657C16.5161 13.9982 16.8723 14.8555 16.8743 15.75V16.5Z" fill="#F2F1F2"/>
</g>
<defs>
<clipPath id="clip0_83_673">
<rect width="24" height="24" fill="white" transform="translate(-0.000732422)"/>
</clipPath>
</defs>
</svg>
