<svg width="36" height="36" viewBox="0 0 36 36" fill="none" xmlns="http://www.w3.org/2000/svg">
<g clip-path="url(#clip0_83_690)">
<path d="M31.4993 36H4.49927C2.01527 36 -0.000732422 33.984 -0.000732422 31.5V4.5C-0.000732422 2.016 2.01527 0 4.49927 0H31.4993C33.9833 0 35.9993 2.016 35.9993 4.5V31.5C35.9993 33.984 33.9833 36 31.4993 36Z" fill="#F2F1F2"/>
<path d="M35.9993 17.9999C35.9993 8.05878 27.9404 -8.7738e-05 17.9993 -8.7738e-05C8.05814 -8.7738e-05 -0.000732422 8.05878 -0.000732422 17.9999C-0.000732422 26.9842 6.58161 34.4309 15.1868 35.7812V23.203H10.6165V17.9999H15.1868V14.0343C15.1868 9.52304 17.874 7.03116 21.9856 7.03116C23.955 7.03116 26.0149 7.38273 26.0149 7.38273V11.8124H23.7451C21.5091 11.8124 20.8118 13.1999 20.8118 14.6234V17.9999H25.804L25.0059 23.203H20.8118V35.7812C29.4169 34.4309 35.9993 26.9842 35.9993 17.9999Z" fill="#F2F1F2"/>
<path d="M25.0059 23.2031L25.804 18H20.8118V14.6235C20.8118 13.2 21.5091 11.8125 23.7451 11.8125H26.0149V7.38281C26.0149 7.38281 23.955 7.03125 21.9856 7.03125C17.874 7.03125 15.1868 9.52313 15.1868 14.0344V18H10.6165V23.2031H15.1868V35.7813C16.1032 35.9251 17.0425 36 17.9993 36C18.9561 36 19.8954 35.9251 20.8118 35.7813V23.2031H25.0059Z" fill="#1B1A38"/>
</g>
<defs>
<clipPath id="clip0_83_690">
<rect width="36" height="36" fill="white" transform="translate(-0.000732422)"/>
</clipPath>
</defs>
</svg>
