<svg width="36" height="36" viewBox="0 0 36 36" fill="none" xmlns="http://www.w3.org/2000/svg">
<rect x="-0.000732422" width="36" height="36" rx="5" fill="#F2F1F2"/>
<path d="M18.0005 4.5C14.3341 4.5 13.874 4.51603 12.434 4.58157C10.9968 4.64738 10.0158 4.87492 9.15738 5.20878C8.26946 5.55361 7.51627 6.01487 6.76588 6.76556C6.01494 7.51597 5.55368 8.26918 5.20774 9.15685C4.87305 10.0155 4.64524 10.9969 4.58055 12.4335C4.51614 13.8736 4.49927 14.334 4.49927 18.0005C4.49927 21.6671 4.51558 22.1258 4.58083 23.5659C4.64693 25.0031 4.87446 25.9842 5.20803 26.8426C5.55312 27.7305 6.01438 28.4837 6.76504 29.2341C7.51514 29.9851 8.26834 30.4475 9.15569 30.7923C10.0146 31.1262 10.9959 31.3537 12.4328 31.4195C13.8729 31.4851 14.3327 31.5011 17.9988 31.5011C21.6655 31.5011 22.1243 31.4851 23.5643 31.4195C25.0015 31.3537 25.9836 31.1262 26.8426 30.7923C27.7302 30.4475 28.4823 29.9851 29.2324 29.2341C29.9833 28.4837 30.4446 27.7305 30.7905 26.8428C31.1224 25.9842 31.3502 25.0028 31.4177 23.5662C31.4824 22.1261 31.4993 21.6671 31.4993 18.0005C31.4993 14.334 31.4824 13.8739 31.4177 12.4338C31.3502 10.9966 31.1224 10.0155 30.7905 9.15713C30.4446 8.26918 29.9833 7.51597 29.2324 6.76556C28.4814 6.01459 27.7305 5.55332 26.8417 5.20878C25.9811 4.87492 24.9995 4.64738 23.5623 4.58157C22.1223 4.51603 21.6639 4.5 17.9963 4.5H18.0005ZM16.7895 6.93291C17.1489 6.93235 17.55 6.93291 18.0005 6.93291C21.6051 6.93291 22.0323 6.94585 23.4557 7.01054C24.772 7.07073 25.4864 7.29068 25.9622 7.47547C26.5922 7.72016 27.0414 8.01267 27.5136 8.48519C27.9861 8.95771 28.2786 9.40773 28.5239 10.0378C28.7087 10.5131 28.9289 11.2275 28.9888 12.5438C29.0535 13.967 29.0676 14.3945 29.0676 17.9975C29.0676 21.6004 29.0535 22.0279 28.9888 23.4511C28.9286 24.7674 28.7087 25.4818 28.5239 25.9572C28.2792 26.5872 27.9861 27.0358 27.5136 27.508C27.0411 27.9805 26.5925 28.2731 25.9622 28.5178C25.4869 28.7034 24.772 28.9228 23.4557 28.983C22.0326 29.0477 21.6051 29.0617 18.0005 29.0617C14.3957 29.0617 13.9685 29.0477 12.5454 28.983C11.2291 28.9222 10.5147 28.7023 10.0385 28.5175C9.40854 28.2728 8.95853 27.9803 8.48603 27.5077C8.01352 27.0352 7.72102 26.5863 7.47577 25.956C7.29098 25.4807 7.07076 24.7663 7.01086 23.45C6.94617 22.0268 6.93323 21.5993 6.93323 17.9941C6.93323 14.3889 6.94617 13.9636 7.01086 12.5404C7.07104 11.2241 7.29098 10.5097 7.47577 10.0338C7.72046 9.40379 8.01352 8.95377 8.48603 8.48126C8.95853 8.00874 9.40854 7.71622 10.0385 7.47096C10.5144 7.28533 11.2291 7.06595 12.5454 7.00548C13.7907 6.94922 14.2734 6.93235 16.7895 6.92954V6.93291ZM25.2068 9.17456C24.3124 9.17456 23.5868 9.89938 23.5868 10.7941C23.5868 11.6885 24.3124 12.4141 25.2068 12.4141C26.1012 12.4141 26.8268 11.6885 26.8268 10.7941C26.8268 9.89966 26.1012 9.174 25.2068 9.174V9.17456ZM18.0005 11.0675C14.1718 11.0675 11.0676 14.1717 11.0676 18.0005C11.0676 21.8294 14.1718 24.9322 18.0005 24.9322C21.8292 24.9322 24.9323 21.8294 24.9323 18.0005C24.9323 14.1717 21.8289 11.0675 18.0003 11.0675H18.0005ZM18.0005 13.5004C20.4857 13.5004 22.5006 15.515 22.5006 18.0005C22.5006 20.4858 20.4857 22.5007 18.0005 22.5007C15.5151 22.5007 13.5005 20.4858 13.5005 18.0005C13.5005 15.515 15.5151 13.5004 18.0005 13.5004Z" fill="#1B1A38"/>
</svg>
