<svg width="24" height="33" viewBox="0 0 24 33" fill="none" xmlns="http://www.w3.org/2000/svg">
<g clip-path="url(#clip0_83_665)">
<path d="M23.9993 12.5C23.9993 21.228 13.8455 31.482 13.4138 31.9142C13.0386 32.2892 12.5299 32.4999 11.9995 32.4999C11.4691 32.4999 10.9604 32.2892 10.5853 31.9142C10.153 31.4817 -0.000732422 21.228 -0.000732422 12.5C-0.000732422 9.3174 1.26355 6.26515 3.51399 4.01472C5.76442 1.76428 8.81667 0.5 11.9993 0.5C15.1819 0.5 18.2341 1.76428 20.4845 4.01472C22.735 6.26515 23.9993 9.3174 23.9993 12.5ZM11.9993 18.5C13.186 18.5 14.346 18.1481 15.3327 17.4888C16.3194 16.8295 17.0884 15.8925 17.5425 14.7961C17.9967 13.6997 18.1155 12.4933 17.884 11.3295C17.6525 10.1656 17.081 9.09647 16.2419 8.25736C15.4028 7.41824 14.3337 6.8468 13.1698 6.61529C12.0059 6.38378 10.7995 6.5026 9.70317 6.95672C8.60681 7.41085 7.66974 8.17988 7.01045 9.16658C6.35116 10.1533 5.99927 11.3133 5.99927 12.5C5.99923 13.2879 6.15441 14.0682 6.45592 14.7961C6.75744 15.5241 7.1994 16.1856 7.75655 16.7427C8.31371 17.2999 8.97516 17.7418 9.70313 18.0433C10.4311 18.3449 11.2113 18.5 11.9993 18.5Z" fill="#F2F1F2"/>
</g>
<defs>
<clipPath id="clip0_83_665">
<rect width="24" height="32" fill="white" transform="translate(-0.000732422 0.5)"/>
</clipPath>
</defs>
</svg>
