<svg width="24" height="24" viewBox="0 0 24 24" fill="none" xmlns="http://www.w3.org/2000/svg">
<mask id="mask0_184_154" style="mask-type:luminance" maskUnits="userSpaceOnUse" x="0" y="0" width="24" height="24">
<path d="M0 1.90735e-06H24V24H0V1.90735e-06Z" fill="white"/>
<path d="M23 23V1H1V23H23Z" stroke="white" stroke-width="2"/>
</mask>
<g mask="url(#mask0_184_154)">
<path d="M19.3091 6.37332V4.49621C19.3091 3.46187 18.4705 2.62332 17.4362 2.62332H2.80908C1.77357 2.62332 0.934082 3.46281 0.934082 4.49832C0.934082 5.53384 1.77357 6.37332 2.80908 6.37332H21.1862C22.2205 6.37332 23.0591 7.21187 23.0591 8.24621V11.0608" stroke="#FF5A31" stroke-opacity="0.7" stroke-width="2" stroke-miterlimit="10"/>
<path d="M23.0591 16.6858V19.5004C23.0591 20.5348 22.2205 21.3733 21.1862 21.3733H2.80908C1.77357 21.3733 0.934082 20.5339 0.934082 19.4983V4.49832" stroke="#FF5A31" stroke-opacity="0.7" stroke-width="2" stroke-miterlimit="10"/>
<path d="M23.0591 16.6858H18.3716C16.8183 16.6858 15.5591 15.4266 15.5591 13.8733C15.5591 12.32 16.8183 11.0608 18.3716 11.0608H23.0591V16.6858Z" stroke="#FF5A31" stroke-opacity="0.7" stroke-width="2" stroke-miterlimit="10"/>
</g>
</svg>
