<svg width="36" height="36" viewBox="0 0 36 36" fill="none" xmlns="http://www.w3.org/2000/svg">
<g clip-path="url(#clip0_83_696)">
<path d="M31.4993 36H4.49927C2.01527 36 -0.000732422 33.984 -0.000732422 31.5V4.5C-0.000732422 2.016 2.01527 0 4.49927 0H31.4993C33.9833 0 35.9993 2.016 35.9993 4.5V31.5C35.9993 33.984 33.9833 36 31.4993 36Z" fill="#F2F1F2"/>
<path d="M24.3808 8H27.753L20.3488 16.4871L28.9993 28H22.2109L16.896 21.0037L10.8113 28H7.43912L15.2832 18.9225L6.99927 8H13.9563L18.758 14.3911L24.3808 8ZM23.2005 26.0074H25.0699L12.9739 9.91882H10.9653L23.2005 26.0074Z" fill="#1B1A38"/>
</g>
<defs>
<clipPath id="clip0_83_696">
<rect width="36" height="36" fill="white" transform="translate(-0.000732422)"/>
</clipPath>
</defs>
</svg>
