<svg width="23" height="19" viewBox="0 0 23 19" fill="none" xmlns="http://www.w3.org/2000/svg">
<path d="M23 1.625V6.125L11.5 10.625L0 6.125V1.625C0 1.32663 0.12116 1.04048 0.336827 0.829505C0.552494 0.618527 0.845001 0.5 1.15 0.5H21.85C22.155 0.5 22.4475 0.618527 22.6632 0.829505C22.8788 1.04048 23 1.32663 23 1.625ZM0 8.54825V17.375C0 17.6734 0.12116 17.9595 0.336827 18.1705C0.552494 18.3815 0.845001 18.5 1.15 18.5H21.85C22.155 18.5 22.4475 18.3815 22.6632 18.1705C22.8788 17.9595 23 17.6734 23 17.375V8.54825L11.5 13.0483L0 8.54825Z" fill="#FF5A31"/>
</svg>
