<svg width="24" height="24" viewBox="0 0 24 24" fill="none" xmlns="http://www.w3.org/2000/svg">
<path d="M11.9993 1C9.82368 1 7.69694 1.64514 5.888 2.85383C4.07906 4.06253 2.66916 5.78049 1.8366 7.79048C1.00403 9.80047 0.786197 12.0122 1.21063 14.146C1.63507 16.2798 2.68272 18.2398 4.2211 19.7782C5.75948 21.3166 7.71949 22.3642 9.85328 22.7886C11.9871 23.2131 14.1988 22.9952 16.2088 22.1627C18.2188 21.3301 19.9367 19.9202 21.1454 18.1113C22.3541 16.3023 22.9993 14.1756 22.9993 12C22.9993 9.08262 21.8403 6.28473 19.7774 4.22183C17.7145 2.15893 14.9167 1 11.9993 1ZM15.9993 13H11.9993C11.7341 13 11.4797 12.8946 11.2922 12.7071C11.1046 12.5196 10.9993 12.2652 10.9993 12V6C10.9993 5.73478 11.1046 5.48043 11.2922 5.29289C11.4797 5.10536 11.7341 5 11.9993 5C12.2645 5 12.5188 5.10536 12.7064 5.29289C12.8939 5.48043 12.9993 5.73478 12.9993 6V11H15.9993C16.2645 11 16.5188 11.1054 16.7064 11.2929C16.8939 11.4804 16.9993 11.7348 16.9993 12C16.9993 12.2652 16.8939 12.5196 16.7064 12.7071C16.5188 12.8946 16.2645 13 15.9993 13Z" fill="#F2F1F2"/>
</svg>
