<svg width="360" height="50" viewBox="0 0 360 50" fill="none" xmlns="http://www.w3.org/2000/svg">
<path d="M329.979 48.3053H324.935V13.213H329.481V24.2237H329.837C331.044 18.2566 336.017 12.5026 344.754 12.5026C354.629 12.5026 359.53 19.5353 359.53 27.8466V48.3053H354.487V28.557C354.487 21.3112 351.006 17.12 342.978 17.12C334.454 17.12 329.979 22.3057 329.979 31.3275V48.3053Z" fill="#090838"/>
<path d="M295.223 48.3053H290.179V13.213H294.726V22.803H295.081C296.146 17.1911 300.124 12.5026 307.441 12.5026C315.539 12.5026 319.091 18.4697 319.091 25.0052V28.486H314.048V25.7866C314.048 19.8194 311.561 16.9069 305.452 16.9069C298.348 16.9069 295.223 21.3823 295.223 29.2674V48.3053Z" fill="#090838"/>
<path d="M260.578 49.0157C253.687 49.0157 248.999 45.748 248.999 40.065C248.999 34.311 253.758 31.8247 260.293 31.1143L276.987 29.2674V26.568C276.987 19.7484 274.004 17.049 266.332 17.049C258.802 17.049 254.824 19.7484 254.824 25.9286V26.2128H249.78V25.9286C249.78 18.5408 255.889 12.5026 266.687 12.5026C277.342 12.5026 281.889 18.6118 281.889 26.3549V48.3053H277.342V38.8574H276.987C274.927 45.3218 268.747 49.0157 260.578 49.0157ZM254.042 39.7098C254.042 43.2617 256.386 45.1087 261.714 45.1087C270.239 45.1087 276.987 41.3437 276.987 32.8903V32.6061L261.856 34.311C256.6 34.8083 254.042 36.0869 254.042 39.7098Z" fill="#090838"/>
<path d="M226.61 49.0157C215.315 49.0157 208.14 41.912 208.14 30.7592C208.14 20.1036 215.244 12.5026 226.539 12.5026C236.839 12.5026 244.156 18.4697 244.156 28.9122C244.156 30.1909 244.014 31.2564 243.801 32.1799H212.9C213.184 40.065 217.233 44.8245 226.539 44.8245C234.779 44.8245 238.615 41.7699 238.615 36.6552V36.158H243.659V36.6552C243.659 43.9721 236.413 49.0157 226.61 49.0157ZM226.468 16.6938C217.375 16.6938 213.255 21.3823 212.9 29.0543H239.396C239.396 28.6991 239.396 28.3439 239.396 27.9887C239.396 20.6009 234.708 16.6938 226.468 16.6938Z" fill="#090838"/>
<path d="M204.221 48.3053H168.986V0.710388H174.03V43.6878H204.221V48.3053Z" fill="#090838"/>
<path d="M133.476 48.3054H122.82V12.7158H132.694V23.6555H133.334C134.257 17.6884 138.52 12.0054 147.825 12.0054C157.557 12.0054 162.175 18.2567 162.175 26.1418V48.3054H151.519V29.6937C151.519 24.0107 149.175 21.5954 142.64 21.5954C135.891 21.5954 133.476 24.2948 133.476 30.333V48.3054Z" fill="#090838"/>
<path d="M92.2252 49.0155C82.2089 49.0155 77.4495 42.8353 77.4495 34.8791V12.7155H88.105V31.3273C88.105 37.0813 90.5203 39.4965 97.2688 39.4965C104.23 39.4965 106.717 36.7971 106.717 30.759V12.7155H117.372V48.3051H107.427V37.4365H106.859C105.935 43.4036 101.602 49.0155 92.2252 49.0155Z" fill="#090838"/>
<path d="M73.5297 48.3053H64.7211C56.4097 48.3053 51.3661 44.3983 51.3661 35.4476V21.5243H45.7542V12.7157H51.3661V5.8251H62.0217V12.7157H73.5297V21.5243H62.0217V34.2399C62.0217 37.7918 63.3714 38.7153 67.1363 38.7153H73.5297V48.3053Z" fill="#090838"/>
<path d="M22.945 49.0156C8.52445 49.0156 0.426223 43.3326 0.426223 32.2509V31.8246H11.0818V33.1033C11.0818 37.5076 13.2839 39.2835 22.945 39.2835C31.4694 39.2835 33.4585 38.0049 33.4585 34.8082C33.4585 31.8957 31.8246 30.8301 26.9231 29.9777L13.5681 28.0597C5.04363 26.71 0 22.4477 0 14.7047C0 7.52993 5.82504 0 21.8084 0C36.442 0 43.2616 6.74852 43.2616 16.7648V17.191H32.535V16.1965C32.535 11.6501 30.1908 9.73208 20.7428 9.73208C13.0708 9.73208 10.7266 11.2239 10.7266 14.2785C10.7266 17.0489 12.2894 18.0434 16.2675 18.7538L29.6225 20.8849C40.278 22.5898 44.114 27.7755 44.114 34.3109C44.114 42.054 38.0759 49.0156 22.945 49.0156Z" fill="#090838"/>
</svg>
